<svg xmlns="http://www.w3.org/2000/svg" xmlns:xlink="http://www.w3.org/1999/xlink" width="1080" zoomAndPan="magnify" viewBox="0 0 810 1439.999935" height="1920" preserveAspectRatio="xMidYMid meet" version="1.0"><defs><g/><clipPath id="0aedc23126"><path d="M 81 400.332031 L 729 400.332031 L 729 1048.332031 L 81 1048.332031 Z M 81 400.332031 " clip-rule="nonzero"/></clipPath><clipPath id="ab6689705e"><path d="M 405 400.332031 C 226.058594 400.332031 81 545.390625 81 724.332031 C 81 903.269531 226.058594 1048.332031 405 1048.332031 C 583.941406 1048.332031 729 903.269531 729 724.332031 C 729 545.390625 583.941406 400.332031 405 400.332031 " clip-rule="nonzero"/></clipPath><clipPath id="d702017cff"><path d="M 122.53125 441.863281 L 687.46875 441.863281 L 687.46875 1006.800781 L 122.53125 1006.800781 Z M 122.53125 441.863281 " clip-rule="nonzero"/></clipPath><clipPath id="88c4a87212"><path d="M 405 441.863281 C 248.996094 441.863281 122.53125 568.328125 122.53125 724.332031 C 122.53125 880.335938 248.996094 1006.800781 405 1006.800781 C 561.003906 1006.800781 687.46875 880.335938 687.46875 724.332031 C 687.46875 568.328125 561.003906 441.863281 405 441.863281 " clip-rule="nonzero"/></clipPath><clipPath id="e875f7a7e8"><path d="M 122.53125 441.863281 L 687.28125 441.863281 L 687.28125 1006.613281 L 122.53125 1006.613281 Z M 122.53125 441.863281 " clip-rule="nonzero"/></clipPath><clipPath id="ad54850660"><path d="M 404.90625 441.863281 C 248.953125 441.863281 122.53125 568.285156 122.53125 724.238281 C 122.53125 880.1875 248.953125 1006.613281 404.90625 1006.613281 C 560.855469 1006.613281 687.28125 880.1875 687.28125 724.238281 C 687.28125 568.285156 560.855469 441.863281 404.90625 441.863281 " clip-rule="nonzero"/></clipPath><clipPath id="3421d05d30"><path d="M 227 528.214844 L 334.242188 528.214844 L 334.242188 635 L 227 635 Z M 227 528.214844 " clip-rule="nonzero"/></clipPath><clipPath id="d82c77360f"><path d="M 192.597656 602 L 258 602 L 258 666.964844 L 192.597656 666.964844 Z M 192.597656 602 " clip-rule="nonzero"/></clipPath><clipPath id="8448cb841b"><path d="M 474.980469 810 L 590 810 L 590 924.941406 L 474.980469 924.941406 Z M 474.980469 810 " clip-rule="nonzero"/></clipPath><clipPath id="5bb9685c48"><path d="M 554 772.691406 L 624.230469 772.691406 L 624.230469 843 L 554 843 Z M 554 772.691406 " clip-rule="nonzero"/></clipPath></defs><rect x="-81" width="972" fill="#ffffff" y="-143.999994" height="1727.999922" fill-opacity="1"/><rect x="-81" width="972" fill="#ffffff" y="-143.999994" height="1727.999922" fill-opacity="1"/><rect x="-81" width="972" fill="#b1b3b3" y="-143.999994" height="1727.999922" fill-opacity="1"/><g clip-path="url(#0aedc23126)"><g clip-path="url(#ab6689705e)"><path fill="#24135f" d="M 81 400.332031 L 729 400.332031 L 729 1048.332031 L 81 1048.332031 Z M 81 400.332031 " fill-opacity="1" fill-rule="nonzero"/><path stroke-linecap="butt" transform="matrix(0.75, 0, 0, 0.75, 81.000011, 400.331079)" fill="none" stroke-linejoin="miter" d="M 432.000023 0.00126987 C 193.41146 0.00126987 -0.000015 193.412745 -0.000015 432.001307 C -0.000015 670.584661 193.41146 864.001345 432.000023 864.001345 C 670.588585 864.001345 864.00006 670.584661 864.00006 432.001307 C 864.00006 193.412745 670.588585 0.00126987 432.000023 0.00126987 " stroke="#24135f" stroke-width="66" stroke-opacity="1" stroke-miterlimit="4"/></g></g><g clip-path="url(#d702017cff)"><g clip-path="url(#88c4a87212)"><path fill="#ebebeb" d="M 122.53125 441.863281 L 687.46875 441.863281 L 687.46875 1006.800781 L 122.53125 1006.800781 Z M 122.53125 441.863281 " fill-opacity="1" fill-rule="nonzero"/></g></g><g clip-path="url(#e875f7a7e8)"><g clip-path="url(#ad54850660)"><path stroke-linecap="butt" transform="matrix(0.749751, 0, 0, 0.749751, 122.53051, 441.86159)" fill="none" stroke-linejoin="miter" d="M 376.626011 0.00225622 C 168.619461 0.00225622 0.000986934 168.620731 0.000986934 376.62728 C 0.000986934 584.62862 168.619461 753.252304 376.626011 753.252304 C 584.62735 753.252304 753.251035 584.62862 753.251035 376.62728 C 753.251035 168.620731 584.62735 0.00225622 376.626011 0.00225622 " stroke="#8181c8" stroke-width="30" stroke-opacity="1" stroke-miterlimit="4"/></g></g><g fill="#2b4743" fill-opacity="1"><g transform="translate(293.824407, 749.990651)"><g><path d="M 45.667969 -16.628906 C 45.667969 -20.855469 44.609375 -24.460938 42.585938 -27.277344 C 40.476562 -30.09375 37.660156 -32.027344 34.226562 -32.996094 C 36.25 -33.875 38.011719 -35.460938 39.332031 -37.835938 C 39.949219 -38.890625 40.386719 -39.949219 40.738281 -41.089844 C 41.089844 -42.234375 41.265625 -43.820312 41.265625 -45.84375 C 41.265625 -47.777344 40.738281 -49.800781 39.859375 -51.738281 C 37.21875 -57.105469 31.5 -59.832031 22.789062 -59.832031 L 6.597656 -59.832031 L 6.597656 0 L 24.902344 0 C 30.972656 0 35.8125 -1.320312 39.507812 -4.136719 C 41.355469 -5.542969 42.851562 -7.390625 43.996094 -9.679688 C 45.050781 -11.878906 45.667969 -14.167969 45.667969 -16.628906 Z M 35.109375 -44.875 C 35.109375 -41.621094 34.140625 -39.242188 32.203125 -37.660156 C 30.269531 -36.074219 27.71875 -35.285156 24.550781 -35.285156 L 12.757812 -35.285156 L 12.757812 -53.9375 L 22.789062 -53.9375 C 30.972656 -53.9375 35.109375 -50.859375 35.109375 -44.875 Z M 39.507812 -17.863281 C 39.507812 -14.253906 38.277344 -11.351562 35.8125 -9.152344 C 33.4375 -6.953125 30.355469 -5.894531 26.660156 -5.894531 L 12.757812 -5.894531 L 12.757812 -29.125 L 27.628906 -29.125 C 30.707031 -29.125 33.4375 -28.070312 35.8125 -25.957031 C 36.867188 -24.988281 37.746094 -23.84375 38.453125 -22.527344 C 39.15625 -21.117188 39.507812 -19.621094 39.507812 -17.863281 Z M 39.507812 -17.863281 "/></g></g></g><g fill="#2b4743" fill-opacity="1"><g transform="translate(341.247953, 749.990651)"><g><path d="M 12.757812 -6.160156 L 12.757812 -59.832031 L 6.597656 -59.832031 L 6.597656 0 L 34.140625 0 L 34.140625 -6.160156 Z M 12.757812 -6.160156 "/></g></g></g><g fill="#2b4743" fill-opacity="1"><g transform="translate(377.145559, 749.990651)"><g><path d="M 59.304688 -30.09375 C 59.304688 -23.230469 56.839844 -17.421875 52.089844 -12.671875 C 47.25 -7.832031 41.441406 -5.457031 34.667969 -5.457031 C 27.894531 -5.457031 22.085938 -7.832031 17.335938 -12.671875 C 12.496094 -17.421875 10.117188 -23.230469 10.117188 -30.09375 C 10.117188 -36.78125 12.496094 -42.585938 17.335938 -47.425781 C 22.085938 -52.179688 27.894531 -54.640625 34.667969 -54.640625 C 41.441406 -54.640625 47.25 -52.179688 52.089844 -47.425781 C 56.839844 -42.585938 59.304688 -36.78125 59.304688 -30.09375 Z M 65.464844 -30.09375 C 65.464844 -34.316406 64.585938 -38.277344 63 -42.058594 C 61.417969 -45.753906 59.21875 -49.011719 56.402344 -51.824219 C 53.585938 -54.554688 50.332031 -56.753906 46.632812 -58.335938 C 42.851562 -59.921875 38.890625 -60.800781 34.667969 -60.800781 C 30.445312 -60.800781 26.398438 -59.921875 22.703125 -58.335938 C 19.003906 -56.753906 15.75 -54.554688 12.933594 -51.824219 C 10.117188 -49.011719 7.917969 -45.753906 6.335938 -42.058594 C 4.75 -38.277344 3.960938 -34.316406 3.960938 -30.09375 C 3.960938 -25.867188 4.75 -21.820312 6.335938 -18.125 C 7.917969 -14.34375 10.117188 -11.085938 12.933594 -8.269531 C 15.75 -5.457031 19.003906 -3.253906 22.703125 -1.671875 C 26.398438 -0.0898438 30.445312 0.703125 34.667969 0.703125 C 38.890625 0.703125 42.851562 -0.0898438 46.632812 -1.671875 C 50.332031 -3.253906 53.585938 -5.457031 56.402344 -8.269531 C 59.21875 -11.085938 61.417969 -14.34375 63 -18.125 C 64.585938 -21.820312 65.464844 -25.867188 65.464844 -30.09375 Z M 65.464844 -30.09375 "/></g></g></g><g fill="#2b4743" fill-opacity="1"><g transform="translate(446.565185, 749.990651)"><g><path d="M 65.640625 -27.980469 L 34.492188 -27.980469 L 34.492188 -22.613281 L 58.777344 -22.613281 C 56.929688 -17.421875 53.851562 -13.199219 49.449219 -10.117188 C 45.050781 -6.953125 40.125 -5.457031 34.757812 -5.457031 C 27.894531 -5.457031 22.085938 -7.832031 17.246094 -12.671875 C 12.496094 -17.511719 10.117188 -23.40625 10.117188 -30.179688 C 10.117188 -36.957031 12.496094 -42.761719 17.335938 -47.601562 C 22.085938 -52.355469 27.894531 -54.816406 34.757812 -54.816406 C 39.859375 -54.816406 44.523438 -53.320312 48.660156 -50.417969 C 52.882812 -47.515625 55.875 -43.730469 57.808594 -38.890625 L 64.320312 -38.890625 C 62.296875 -45.492188 58.511719 -50.769531 53.058594 -54.816406 C 47.601562 -58.867188 41.265625 -60.976562 34.140625 -60.976562 C 30.269531 -60.976562 26.484375 -60.097656 22.789062 -58.511719 C 19.003906 -56.929688 15.75 -54.730469 12.933594 -51.914062 C 10.117188 -49.097656 7.917969 -45.84375 6.335938 -42.148438 C 4.75 -38.363281 3.960938 -34.316406 3.960938 -30.09375 C 3.960938 -25.867188 4.75 -21.820312 6.335938 -18.125 C 7.917969 -14.34375 10.117188 -11.085938 12.933594 -8.269531 C 15.75 -5.457031 19.003906 -3.253906 22.789062 -1.671875 C 26.484375 -0.0898438 30.53125 0.703125 34.757812 0.703125 C 41.972656 0.703125 48.484375 -1.582031 54.289062 -6.246094 C 60.097656 -11 63.703125 -16.980469 65.023438 -24.285156 Z M 65.640625 -27.980469 "/></g></g></g><path stroke-linecap="butt" transform="matrix(0.750882, 0, 0, 0.75, -66.599976, 718.706054)" fill="none" stroke-linejoin="miter" d="M -0.00211293 7.501304 L 345.602058 7.501304 " stroke="#d0006f" stroke-width="15" stroke-opacity="1" stroke-miterlimit="4"/><path stroke-linecap="butt" transform="matrix(0.750882, 0, 0, 0.75, 624.149964, 718.706054)" fill="none" stroke-linejoin="miter" d="M -0.00203308 7.501304 L 345.602138 7.501304 " stroke="#d0006f" stroke-width="15" stroke-opacity="1" stroke-miterlimit="4"/><g clip-path="url(#3421d05d30)"><path fill="#d0006f" d="M 255.960938 582.683594 C 257.453125 582.84375 258.917969 583.128906 260.359375 583.539062 C 261.804688 583.949219 263.199219 584.480469 264.550781 585.125 C 265.90625 585.773438 267.191406 586.527344 268.414062 587.390625 C 269.640625 588.253906 270.78125 589.214844 271.839844 590.273438 C 272.902344 591.328125 273.867188 592.46875 274.730469 593.6875 C 275.597656 594.90625 276.355469 596.191406 277.003906 597.539062 C 277.652344 598.886719 278.183594 600.28125 278.59375 601.71875 C 279.003906 603.15625 279.292969 604.617188 279.457031 606.105469 C 280.402344 615.5625 280.835938 625.046875 280.757812 634.554688 C 280.679688 625.046875 281.113281 615.5625 282.058594 606.101562 C 282.21875 604.617188 282.507812 603.152344 282.917969 601.714844 C 283.332031 600.277344 283.859375 598.886719 284.507812 597.539062 C 285.15625 596.191406 285.914062 594.90625 286.78125 593.6875 C 287.648438 592.46875 288.609375 591.328125 289.671875 590.273438 C 290.730469 589.214844 291.875 588.253906 293.097656 587.390625 C 294.320312 586.527344 295.609375 585.769531 296.960938 585.125 C 298.3125 584.480469 299.710938 583.949219 301.152344 583.539062 C 302.59375 583.128906 304.058594 582.84375 305.550781 582.683594 C 315.039062 581.738281 324.550781 581.308594 334.085938 581.386719 C 324.550781 581.464844 315.039062 581.03125 305.550781 580.085938 C 304.058594 579.925781 302.59375 579.640625 301.152344 579.230469 C 299.707031 578.820312 298.3125 578.292969 296.960938 577.644531 C 295.609375 577 294.320312 576.242188 293.097656 575.378906 C 291.871094 574.515625 290.730469 573.554688 289.671875 572.496094 C 288.609375 571.441406 287.648438 570.300781 286.78125 569.082031 C 285.914062 567.863281 285.15625 566.578125 284.507812 565.230469 C 283.859375 563.882812 283.328125 562.488281 282.917969 561.050781 C 282.507812 559.613281 282.21875 558.152344 282.058594 556.667969 C 281.113281 547.207031 280.679688 537.722656 280.757812 528.214844 C 280.835938 537.722656 280.402344 547.207031 279.457031 556.667969 C 279.292969 558.152344 279.003906 559.613281 278.59375 561.050781 C 278.183594 562.488281 277.652344 563.882812 277.003906 565.230469 C 276.355469 566.578125 275.597656 567.863281 274.734375 569.082031 C 273.867188 570.300781 272.902344 571.441406 271.84375 572.496094 C 270.78125 573.554688 269.640625 574.515625 268.417969 575.378906 C 267.191406 576.242188 265.90625 577 264.550781 577.644531 C 263.199219 578.292969 261.804688 578.820312 260.363281 579.230469 C 258.917969 579.640625 257.453125 579.925781 255.960938 580.085938 C 246.472656 581.03125 236.960938 581.464844 227.425781 581.386719 C 236.960938 581.308594 246.472656 581.738281 255.960938 582.683594 Z M 255.960938 582.683594 " fill-opacity="1" fill-rule="nonzero"/></g><g clip-path="url(#d82c77360f)"><path fill="#d0006f" d="M 210.25 635.347656 C 211.160156 635.445312 212.054688 635.621094 212.9375 635.871094 C 213.816406 636.121094 214.667969 636.445312 215.496094 636.839844 C 216.320312 637.234375 217.105469 637.695312 217.855469 638.222656 C 218.601562 638.75 219.296875 639.335938 219.945312 639.980469 C 220.59375 640.625 221.179688 641.320312 221.710938 642.066406 C 222.238281 642.8125 222.703125 643.59375 223.097656 644.417969 C 223.492188 645.242188 223.816406 646.09375 224.066406 646.96875 C 224.320312 647.847656 224.496094 648.738281 224.59375 649.648438 C 225.171875 655.421875 225.4375 661.214844 225.386719 667.019531 C 225.339844 661.214844 225.605469 655.421875 226.179688 649.648438 C 226.28125 648.738281 226.457031 647.847656 226.707031 646.96875 C 226.957031 646.09375 227.28125 645.242188 227.679688 644.417969 C 228.074219 643.59375 228.535156 642.8125 229.066406 642.066406 C 229.59375 641.320312 230.183594 640.625 230.832031 639.980469 C 231.476562 639.335938 232.175781 638.75 232.921875 638.222656 C 233.667969 637.695312 234.457031 637.234375 235.28125 636.839844 C 236.105469 636.445312 236.960938 636.121094 237.839844 635.871094 C 238.722656 635.621094 239.617188 635.445312 240.527344 635.347656 C 246.320312 634.769531 252.128906 634.507812 257.949219 634.554688 C 252.128906 634.601562 246.320312 634.335938 240.527344 633.761719 C 239.617188 633.660156 238.722656 633.488281 237.839844 633.234375 C 236.960938 632.984375 236.109375 632.664062 235.28125 632.269531 C 234.457031 631.875 233.671875 631.414062 232.921875 630.886719 C 232.175781 630.359375 231.480469 629.773438 230.832031 629.128906 C 230.183594 628.480469 229.59375 627.785156 229.066406 627.042969 C 228.539062 626.296875 228.074219 625.511719 227.679688 624.691406 C 227.28125 623.867188 226.960938 623.019531 226.707031 622.140625 C 226.457031 621.261719 226.28125 620.371094 226.179688 619.460938 C 225.605469 613.6875 225.339844 607.894531 225.386719 602.089844 C 225.4375 607.894531 225.171875 613.6875 224.59375 619.460938 C 224.496094 620.371094 224.320312 621.261719 224.066406 622.140625 C 223.816406 623.019531 223.492188 623.867188 223.097656 624.691406 C 222.703125 625.515625 222.238281 626.296875 221.710938 627.042969 C 221.179688 627.789062 220.59375 628.484375 219.945312 629.128906 C 219.296875 629.773438 218.601562 630.359375 217.855469 630.886719 C 217.105469 631.414062 216.320312 631.875 215.496094 632.269531 C 214.667969 632.664062 213.816406 632.988281 212.9375 633.238281 C 212.054688 633.488281 211.160156 633.664062 210.25 633.761719 C 204.457031 634.339844 198.648438 634.601562 192.824219 634.554688 C 198.648438 634.507812 204.457031 634.769531 210.25 635.347656 Z M 210.25 635.347656 " fill-opacity="1" fill-rule="nonzero"/></g><g clip-path="url(#8448cb841b)"><path fill="#d0006f" d="M 533.566406 840.746094 C 533.742188 842.347656 534.050781 843.925781 534.492188 845.472656 C 534.933594 847.023438 535.5 848.523438 536.195312 849.976562 C 536.890625 851.425781 537.703125 852.808594 538.632812 854.125 C 539.5625 855.4375 540.597656 856.664062 541.734375 857.804688 C 542.871094 858.945312 544.09375 859.980469 545.40625 860.910156 C 546.71875 861.839844 548.101562 862.652344 549.550781 863.351562 C 551 864.046875 552.5 864.617188 554.042969 865.058594 C 555.589844 865.5 557.164062 865.808594 558.761719 865.984375 C 568.9375 867 579.136719 867.464844 589.363281 867.378906 C 579.136719 867.296875 568.9375 867.761719 558.757812 868.777344 C 557.160156 868.953125 555.589844 869.261719 554.042969 869.703125 C 552.496094 870.144531 551 870.714844 549.546875 871.410156 C 548.097656 872.105469 546.71875 872.921875 545.40625 873.851562 C 544.09375 874.78125 542.867188 875.816406 541.730469 876.957031 C 540.59375 878.09375 539.5625 879.320312 538.632812 880.636719 C 537.703125 881.949219 536.890625 883.335938 536.195312 884.785156 C 535.5 886.238281 534.933594 887.738281 534.492188 889.289062 C 534.050781 890.835938 533.742188 892.410156 533.566406 894.011719 C 532.554688 904.203125 532.089844 914.421875 532.171875 924.664062 C 532.257812 914.421875 531.792969 904.203125 530.777344 894.011719 C 530.601562 892.410156 530.296875 890.835938 529.855469 889.289062 C 529.414062 887.738281 528.84375 886.238281 528.148438 884.785156 C 527.453125 883.332031 526.640625 881.949219 525.710938 880.636719 C 524.785156 879.320312 523.75 878.09375 522.613281 876.957031 C 521.476562 875.816406 520.25 874.78125 518.9375 873.851562 C 517.625 872.917969 516.246094 872.105469 514.796875 871.410156 C 513.34375 870.714844 511.847656 870.144531 510.300781 869.703125 C 508.753906 869.261719 507.183594 868.953125 505.582031 868.777344 C 495.40625 867.761719 485.207031 867.296875 474.980469 867.378906 C 485.207031 867.464844 495.40625 867 505.582031 865.984375 C 507.183594 865.808594 508.753906 865.5 510.300781 865.058594 C 511.847656 864.617188 513.34375 864.046875 514.796875 863.351562 C 516.246094 862.65625 517.625 861.839844 518.9375 860.910156 C 520.25 859.980469 521.476562 858.945312 522.613281 857.804688 C 523.75 856.667969 524.785156 855.441406 525.714844 854.125 C 526.640625 852.8125 527.453125 851.425781 528.148438 849.976562 C 528.84375 848.523438 529.414062 847.023438 529.855469 845.472656 C 530.296875 843.925781 530.601562 842.347656 530.777344 840.746094 C 531.792969 830.554688 532.257812 820.335938 532.171875 810.09375 C 532.089844 820.335938 532.554688 830.554688 533.566406 840.746094 Z M 533.566406 840.746094 " fill-opacity="1" fill-rule="nonzero"/></g><g clip-path="url(#5bb9685c48)"><path fill="#d0006f" d="M 590.21875 791.644531 C 590.324219 792.625 590.511719 793.585938 590.78125 794.53125 C 591.050781 795.476562 591.398438 796.394531 591.824219 797.28125 C 592.246094 798.167969 592.742188 799.011719 593.3125 799.8125 C 593.878906 800.617188 594.507812 801.363281 595.203125 802.058594 C 595.898438 802.753906 596.644531 803.386719 597.445312 803.957031 C 598.246094 804.523438 599.089844 805.019531 599.976562 805.445312 C 600.863281 805.871094 601.777344 806.21875 602.71875 806.488281 C 603.664062 806.757812 604.625 806.945312 605.601562 807.054688 C 611.816406 807.671875 618.042969 807.957031 624.289062 807.90625 C 618.042969 807.855469 611.816406 808.140625 605.601562 808.757812 C 604.625 808.867188 603.664062 809.054688 602.71875 809.324219 C 601.777344 809.59375 600.863281 809.941406 599.976562 810.367188 C 599.089844 810.792969 598.246094 811.289062 597.445312 811.855469 C 596.644531 812.425781 595.898438 813.058594 595.203125 813.753906 C 594.507812 814.449219 593.878906 815.195312 593.3125 816 C 592.742188 816.800781 592.246094 817.648438 591.824219 818.535156 C 591.398438 819.421875 591.050781 820.335938 590.78125 821.28125 C 590.511719 822.226562 590.324219 823.1875 590.21875 824.167969 C 589.597656 830.390625 589.3125 836.628906 589.363281 842.882812 C 589.414062 836.628906 589.132812 830.390625 588.511719 824.167969 C 588.40625 823.191406 588.21875 822.226562 587.949219 821.28125 C 587.679688 820.335938 587.332031 819.421875 586.90625 818.535156 C 586.484375 817.648438 585.988281 816.800781 585.421875 816 C 584.851562 815.199219 584.222656 814.449219 583.527344 813.753906 C 582.832031 813.058594 582.085938 812.425781 581.285156 811.855469 C 580.484375 811.289062 579.640625 810.792969 578.753906 810.367188 C 577.871094 809.941406 576.957031 809.59375 576.011719 809.324219 C 575.066406 809.054688 574.109375 808.867188 573.132812 808.757812 C 566.917969 808.140625 560.691406 807.855469 554.445312 807.90625 C 560.691406 807.957031 566.917969 807.671875 573.132812 807.054688 C 574.109375 806.945312 575.066406 806.757812 576.011719 806.488281 C 576.957031 806.21875 577.871094 805.871094 578.757812 805.445312 C 579.640625 805.019531 580.484375 804.523438 581.285156 803.957031 C 582.085938 803.386719 582.835938 802.753906 583.53125 802.058594 C 584.222656 801.363281 584.855469 800.617188 585.421875 799.8125 C 585.988281 799.011719 586.484375 798.167969 586.910156 797.28125 C 587.335938 796.394531 587.679688 795.476562 587.949219 794.53125 C 588.21875 793.585938 588.40625 792.625 588.515625 791.644531 C 589.132812 785.421875 589.417969 779.183594 589.363281 772.929688 C 589.3125 779.183594 589.597656 785.421875 590.21875 791.644531 Z M 590.21875 791.644531 " fill-opacity="1" fill-rule="nonzero"/></g></svg>