<?xml version="1.0" standalone="no"?>
<!DOCTYPE svg PUBLIC "-//W3C//DTD SVG 20010904//EN"
 "http://www.w3.org/TR/2001/REC-SVG-20010904/DTD/svg10.dtd">
<svg version="1.0" xmlns="http://www.w3.org/2000/svg"
 width="1280.000000pt" height="1201.000000pt" viewBox="0 0 1280.000000 1201.000000"
 preserveAspectRatio="xMidYMid meet">

<g transform="translate(0.000000,1201.000000) scale(0.100000,-0.100000)"
fill="#000000" stroke="none">
<path d="M0 6005 l0 -6005 6400 0 6400 0 0 6005 0 6005 -6400 0 -6400 0 0
-6005z m5210 2455 l0 -80 -337 0 c-321 0 -343 -1 -444 -24 -185 -42 -332 -116
-429 -216 -100 -102 -142 -213 -142 -370 0 -125 21 -201 83 -291 89 -132 263
-234 496 -290 81 -20 122 -22 506 -26 l417 -5 0 691 0 692 538 -3 537 -3 95
-27 c184 -52 329 -124 428 -213 l52 -47 165 147 166 147 42 -35 c36 -30 176
-152 487 -427 36 -31 236 -208 446 -391 652 -572 773 -679 779 -689 4 -6 -38
-10 -115 -10 l-121 0 -412 363 c-226 199 -488 430 -582 512 -94 83 -244 215
-334 295 -90 80 -169 149 -177 153 -14 8 -75 -39 -201 -154 l-42 -39 24 -52
c57 -126 77 -287 51 -428 -53 -296 -292 -508 -696 -618 -93 -26 -101 -26 -484
-30 -213 -2 -386 1 -385 5 4 10 180 168 584 529 465 415 567 507 624 561 l56
53 -49 45 c-58 55 -145 104 -246 140 -147 52 -180 55 -621 55 l-409 0 0 -695
0 -696 -562 3 -563 3 -99 28 c-141 39 -237 82 -337 149 -177 118 -271 272
-300 489 -28 220 38 445 177 599 75 83 224 173 364 220 157 52 220 58 608 59
l362 1 0 -80z m-1491 -1815 c46 -23 57 -87 21 -120 -19 -18 -19 -18 0 -45 26
-36 25 -40 -4 -40 -16 0 -32 11 -46 30 -29 41 -60 40 -60 -1 0 -27 -3 -30 -27
-27 -16 2 -27 6 -25 11 1 4 2 52 2 107 l0 100 55 0 c31 0 69 -7 84 -15z m251
-5 c0 -18 -7 -20 -55 -20 -52 0 -55 -1 -55 -25 0 -23 3 -25 50 -25 43 0 50 -3
50 -20 0 -17 -7 -20 -50 -20 -47 0 -50 -2 -50 -25 0 -24 3 -25 60 -25 53 0 60
-2 60 -20 0 -18 -7 -20 -85 -20 l-85 0 0 110 0 110 80 0 c73 0 80 -2 80 -20z
m209 -4 c14 -13 21 -31 21 -57 0 -52 -30 -79 -87 -79 -41 0 -43 -1 -43 -30 0
-25 -4 -30 -25 -30 l-25 0 0 111 0 111 69 -4 c50 -2 75 -9 90 -22z m219 4 c27
-16 32 -26 32 -57 0 -20 -7 -45 -17 -55 -14 -16 -14 -22 -2 -46 7 -15 15 -30
17 -34 2 -5 -7 -8 -20 -8 -15 0 -33 11 -46 30 -13 17 -31 30 -42 30 -16 0 -20
-7 -20 -30 0 -25 -4 -30 -25 -30 l-25 0 0 110 0 110 58 0 c39 0 67 -6 90 -20z
m242 0 c0 -16 -8 -19 -57 -22 -51 -3 -58 -6 -61 -25 -3 -20 2 -22 50 -25 41
-2 54 -7 56 -20 3 -15 -5 -18 -53 -18 -53 0 -56 -1 -53 -22 3 -20 10 -23 61
-26 49 -3 57 -6 57 -23 0 -18 -6 -20 -82 -17 l-81 3 -2 100 c0 55 1 103 3 108
2 4 39 7 83 7 72 0 79 -2 79 -20z m178 14 c14 -4 22 -13 20 -23 -3 -12 -15
-16 -53 -16 -39 0 -50 -4 -53 -17 -2 -13 8 -20 40 -28 55 -15 78 -36 78 -71 0
-53 -95 -84 -157 -50 -39 20 -17 38 45 37 74 -1 79 22 9 42 -57 16 -82 47 -68
85 6 14 18 30 28 36 20 12 76 14 111 5z m242 -14 c0 -16 -8 -19 -57 -22 -51
-3 -58 -6 -61 -25 -3 -21 0 -23 47 -23 44 0 51 -3 51 -20 0 -17 -7 -20 -50
-20 -47 0 -50 -2 -50 -25 0 -24 3 -25 60 -25 53 0 60 -2 60 -20 0 -18 -7 -20
-85 -20 l-85 0 0 110 0 110 85 0 c78 0 85 -2 85 -20z m132 -45 l53 -64 3 64
c3 62 4 65 27 65 l25 0 0 -110 c0 -109 0 -110 -23 -110 -17 0 -38 18 -73 61
l-49 62 -3 -62 c-3 -57 -4 -61 -27 -61 l-25 0 0 110 c0 102 1 110 19 110 12 0
41 -26 73 -65z m328 45 c0 -16 -7 -20 -35 -20 l-35 0 0 -90 c0 -89 0 -90 -25
-90 -25 0 -25 1 -25 90 l0 90 -35 0 c-28 0 -35 4 -35 20 0 19 7 20 95 20 88 0
95 -1 95 -20z m179 -77 c24 -54 45 -104 48 -110 9 -22 -45 -15 -57 7 -9 16
-21 20 -61 20 -42 0 -52 -3 -56 -20 -4 -14 -14 -20 -34 -20 l-29 0 26 58 c14
31 35 81 47 109 19 45 26 53 48 53 23 0 30 -10 68 -97z m168 37 l48 -60 5 58
c5 53 7 57 33 60 l27 3 0 -110 c0 -111 0 -111 -24 -111 -18 0 -37 16 -73 61
l-48 62 -3 -62 c-3 -57 -4 -61 -27 -61 l-25 0 0 110 c0 103 1 110 20 110 12 0
38 -23 67 -60z m326 40 c4 -17 0 -20 -29 -20 l-34 0 0 -90 0 -90 -30 0 -30 0
0 90 0 90 -30 0 c-23 0 -30 4 -30 20 0 18 7 20 89 20 80 0 89 -2 94 -20z m197
0 c0 -18 -7 -20 -55 -20 -52 0 -55 -1 -55 -25 0 -23 3 -25 50 -25 43 0 50 -3
50 -20 0 -17 -7 -20 -50 -20 -47 0 -50 -2 -50 -25 0 -24 3 -25 60 -25 53 0 60
-2 60 -20 0 -18 -7 -20 -85 -20 l-85 0 0 110 0 110 80 0 c73 0 80 -2 80 -20z
m191 -25 c13 -25 27 -45 31 -45 3 0 18 20 32 45 21 35 33 45 52 45 l26 0 -28
-47 c-15 -27 -33 -57 -41 -68 -7 -11 -13 -39 -13 -62 0 -41 -1 -43 -30 -43
-29 0 -30 2 -30 43 0 32 -9 57 -35 97 -41 65 -43 80 -11 80 17 0 29 -11 47
-45z m403 31 c42 -18 66 -51 66 -93 0 -78 -44 -113 -144 -113 l-66 0 0 110 0
110 55 0 c31 0 71 -6 89 -14z m164 -98 l3 -108 -31 0 -30 0 0 111 0 110 28 -3
27 -3 3 -107z m198 99 c3 -3 3 -15 -1 -26 -5 -17 -10 -19 -26 -10 -28 15 -73
7 -77 -13 -2 -12 8 -20 40 -28 55 -15 78 -36 78 -71 0 -20 -8 -34 -26 -45 -47
-31 -161 -15 -148 20 4 11 18 13 58 9 37 -4 56 -2 61 7 9 15 -7 26 -58 40 -66
19 -83 87 -30 119 18 11 117 10 129 -2z m214 -7 c0 -16 -7 -20 -35 -20 l-35 0
0 -90 c0 -89 0 -90 -25 -90 -25 0 -25 1 -25 90 l0 90 -35 0 c-22 0 -35 5 -35
13 0 24 12 27 102 27 81 0 88 -2 88 -20z m197 -15 c28 -32 26 -74 -4 -107 -14
-16 -14 -20 -1 -35 30 -36 30 -43 1 -43 -21 0 -33 8 -46 30 -12 20 -26 30 -43
30 -20 0 -24 -5 -24 -30 0 -25 -4 -30 -25 -30 l-25 0 0 111 0 111 71 -4 c64
-3 74 -7 96 -33z m113 -75 l0 -110 -25 0 -25 0 0 103 c0 57 3 107 7 110 3 4
15 7 25 7 16 0 18 -10 18 -110z m204 100 c35 -13 49 -43 34 -74 -9 -21 -8 -29
5 -44 22 -25 21 -48 -3 -72 -17 -17 -33 -20 -100 -20 l-80 0 0 110 0 110 59 0
c33 0 71 -4 85 -10z m146 -61 c0 -80 11 -109 43 -109 40 0 46 13 49 95 3 78 4
80 28 80 25 0 25 -1 25 -82 0 -72 -3 -84 -23 -106 -28 -30 -63 -38 -108 -25
-47 13 -64 50 -64 143 0 73 1 75 25 75 24 0 25 -2 25 -71z m250 -39 l0 -110
-25 0 -25 0 0 110 0 110 25 0 25 0 0 -110z m210 92 c57 -28 76 -92 45 -151
-18 -36 -60 -51 -141 -51 l-64 0 0 103 c0 57 3 107 7 110 13 14 119 7 153 -11z
m263 7 c39 -20 57 -51 57 -100 0 -84 -69 -132 -152 -107 -95 28 -103 172 -13
209 29 12 83 11 108 -2z m241 1 c53 -20 70 -85 31 -124 -19 -19 -19 -22 6 -57
l20 -29 -30 0 c-23 0 -34 7 -48 30 -11 19 -25 30 -40 30 -19 0 -23 -5 -23 -30
0 -25 -4 -30 -25 -30 l-25 0 0 110 0 110 54 0 c30 0 66 -4 80 -10z m-3356
-365 c14 -4 22 -13 20 -23 -3 -13 -15 -17 -53 -17 -65 0 -67 -22 -5 -44 25 -9
51 -20 58 -24 19 -13 14 -65 -8 -87 -37 -37 -171 -19 -150 20 8 15 15 16 48 7
64 -17 101 12 45 34 -92 36 -93 37 -93 73 0 37 14 53 57 66 28 8 38 7 81 -5z
m1241 -12 c21 -13 22 -17 8 -30 -13 -13 -20 -13 -51 -2 -43 15 -64 7 -84 -33
-28 -57 28 -113 88 -88 27 11 34 11 47 -3 14 -14 13 -17 -15 -31 -90 -47 -190
14 -178 107 10 87 107 129 185 80z m327 6 c34 -12 54 -49 54 -99 -1 -69 -44
-110 -118 -110 -37 0 -50 6 -78 34 -44 44 -47 99 -8 145 39 47 83 55 150 30z
m692 6 c14 -4 22 -13 20 -23 -3 -13 -15 -17 -53 -17 -66 0 -67 -23 -1 -45 76
-25 94 -63 51 -105 -43 -44 -170 -28 -152 20 5 12 12 15 25 9 32 -14 86 -10
90 7 2 12 -9 19 -42 28 -52 13 -76 33 -76 65 0 31 20 55 55 65 30 9 39 9 83
-4z m-3223 -9 c40 -17 55 -42 55 -90 0 -80 -46 -116 -149 -116 l-61 0 0 110 0
110 60 0 c33 0 76 -6 95 -14z m265 -6 c0 -18 -7 -20 -55 -20 -52 0 -55 -1 -55
-25 0 -23 3 -25 50 -25 43 0 50 -3 50 -20 0 -17 -7 -20 -50 -20 -47 0 -50 -2
-50 -25 0 -24 3 -25 55 -25 48 0 55 -2 55 -20 0 -18 -7 -20 -84 -20 l-83 0 1
110 1 110 82 0 c76 0 83 -2 83 -20z m190 -70 l0 -90 55 0 c46 0 55 -3 55 -17
0 -10 22 29 48 87 44 96 51 105 76 105 24 0 30 -9 66 -89 56 -126 56 -126 27
-126 -16 0 -28 8 -35 25 -10 22 -18 25 -62 25 -45 0 -50 -3 -56 -25 -6 -25 -7
-25 -115 -25 l-109 0 0 110 0 110 25 0 c25 0 25 -1 25 -90z m813 84 c9 -3 13
-13 10 -24 -4 -16 -12 -18 -54 -13 -45 5 -49 4 -49 -15 0 -16 8 -23 35 -28 80
-15 109 -73 58 -114 -23 -18 -38 -21 -81 -18 -59 5 -76 16 -66 42 4 11 12 15
23 10 26 -11 70 -17 86 -10 26 10 5 33 -41 46 -42 12 -74 40 -74 66 0 6 9 23
21 38 17 22 28 26 69 26 27 0 55 -3 63 -6z m254 -29 c33 -33 35 -39 30 -82 -7
-63 -49 -103 -108 -103 -78 0 -118 39 -119 113 0 40 5 53 29 78 25 25 37 29
81 29 46 0 56 -4 87 -35z m123 -55 l0 -90 55 0 c48 0 55 -2 55 -20 0 -18 -7
-20 -80 -20 l-80 0 0 110 0 110 25 0 c25 0 25 -1 25 -90z m190 12 c0 -80 9
-102 41 -102 36 0 49 28 49 106 0 72 1 74 25 74 24 0 25 -2 25 -76 0 -107 -23
-143 -93 -144 -77 0 -107 43 -107 155 l0 65 30 0 30 0 0 -78z m480 -32 l0
-110 -25 0 -25 0 0 110 0 110 25 0 25 0 0 -110z m412 46 l53 -65 3 65 c3 60 4
64 27 64 l25 0 0 -110 c0 -109 0 -110 -24 -110 -16 0 -37 17 -72 62 l-49 63
-3 -63 c-3 -58 -4 -62 -27 -62 l-25 0 0 110 c0 103 1 110 20 110 12 0 40 -24
72 -64z m318 44 c0 -18 -7 -20 -55 -20 -52 0 -55 -1 -55 -25 0 -23 3 -25 50
-25 43 0 50 -3 50 -20 0 -17 -7 -20 -50 -20 -47 0 -50 -2 -50 -25 0 -24 3 -25
60 -25 53 0 60 -2 60 -20 0 -18 -7 -20 -85 -20 l-85 0 0 110 0 110 80 0 c73 0
80 -2 80 -20z m-3390 -880 l0 -99 -117 -3 -118 -3 -3 -357 -2 -358 -115 0
-115 0 0 360 0 360 -120 0 -120 0 0 100 0 100 355 0 355 0 0 -100z m1050 -360
l0 -460 -110 0 -110 0 0 460 0 460 110 0 110 0 0 -460z m2330 360 l0 -100
-120 0 -120 0 0 -360 0 -360 -115 0 -115 0 -2 358 -3 357 -117 3 -117 3 -3 99
-3 100 358 0 357 0 0 -100z m-3065 -155 c21 -4 51 -13 66 -21 23 -12 28 -12
33 1 4 12 28 15 116 15 l110 0 0 -330 0 -330 -110 0 c-87 0 -111 3 -118 15 -7
14 -12 13 -43 -2 -25 -14 -58 -18 -129 -18 -86 0 -100 3 -148 29 -235 131
-240 475 -8 611 42 24 132 45 171 39 11 -1 38 -6 60 -9z m2216 -1 c70 -21 139
-89 165 -165 16 -46 19 -85 19 -274 l0 -220 -112 -3 -113 -3 0 199 c0 190 -1
201 -22 232 -40 59 -117 64 -178 14 l-30 -26 0 -209 0 -209 -115 0 -115 0 0
330 0 330 115 0 c96 0 115 -3 115 -15 0 -19 4 -19 43 2 72 37 143 42 228 17z
m-823 -23 c115 -59 175 -166 170 -300 l-3 -76 -227 -3 c-135 -1 -228 -6 -228
-12 0 -23 70 -78 109 -85 44 -7 102 7 121 31 10 11 38 14 121 14 60 0 109 -2
109 -5 0 -21 -55 -108 -86 -135 -70 -61 -116 -75 -239 -75 -128 0 -174 16
-249 85 -180 166 -121 487 106 571 76 28 234 23 296 -10z m2501 6 c41 -21 41
-21 41 -2 0 12 19 15 110 15 l110 0 0 -330 0 -330 -110 0 c-94 0 -110 2 -110
16 0 11 -5 14 -17 9 -184 -76 -357 -23 -443 136 -34 61 -35 68 -35 169 0 86 4
113 21 151 32 68 91 128 159 161 55 27 67 29 150 26 59 -3 102 -10 124 -21z
m-619 -317 l0 -330 -110 0 -110 0 0 330 0 330 110 0 110 0 0 -330z m-2146
-472 c26 -11 44 -44 31 -56 -3 -4 -14 4 -24 17 -26 34 -65 26 -69 -15 -3 -25
4 -36 46 -71 l49 -42 20 27 c27 36 40 22 16 -18 -18 -31 -18 -31 7 -50 23 -18
24 -20 5 -20 -12 0 -26 5 -32 11 -8 8 -20 6 -43 -6 -41 -21 -93 -13 -115 18
-20 29 -19 50 4 78 13 16 17 33 14 55 -6 39 10 71 39 77 13 2 24 5 25 6 1 0
13 -4 27 -11z m-1756 -10 c-3 -8 -28 -14 -66 -16 l-62 -3 0 -39 0 -40 61 0
c44 0 60 -3 56 -12 -4 -14 -9 -15 -74 -17 l-43 -1 0 -45 c0 -33 -4 -45 -15
-45 -12 0 -15 19 -15 115 l0 115 81 0 c60 0 80 -3 77 -12z m92 -103 c0 -92 -3
-115 -14 -115 -11 0 -14 23 -15 105 -1 58 1 110 4 115 18 29 25 -1 25 -105z
m176 28 l69 -88 3 88 c2 68 6 87 17 87 12 0 15 -21 15 -115 0 -85 -3 -115 -12
-115 -7 0 -44 39 -83 87 l-70 87 -3 -87 c-2 -68 -6 -87 -17 -87 -12 0 -15 21
-15 115 0 89 3 115 13 115 8 0 45 -39 83 -87z m323 29 c14 -31 37 -83 52 -114
24 -50 25 -58 10 -58 -9 0 -21 13 -28 30 -11 29 -14 30 -72 30 -57 0 -61 -2
-76 -30 -9 -16 -22 -30 -29 -30 -10 0 2 36 38 115 32 73 56 115 66 115 9 0 25
-24 39 -58z m233 -33 l73 -91 3 91 c2 72 6 91 17 91 12 0 15 -21 15 -115 0
-95 -3 -115 -15 -115 -8 0 -45 38 -82 85 l-68 84 -3 -84 c-2 -67 -6 -85 -17
-85 -12 0 -15 21 -15 115 0 68 4 115 10 115 5 0 42 -41 82 -91z m379 60 c49
-53 32 -70 -19 -19 -61 60 -151 23 -152 -62 0 -50 8 -66 41 -83 46 -24 84 -19
112 15 39 45 64 39 31 -8 -18 -26 -65 -52 -93 -52 -34 0 -87 31 -105 60 -9 16
-16 47 -16 70 0 34 6 48 34 76 30 30 40 34 86 34 45 0 56 -4 81 -31z m267 19
c-3 -8 -29 -14 -71 -16 l-67 -3 0 -34 0 -35 60 0 c47 0 60 -3 60 -15 0 -12
-13 -15 -60 -15 l-60 0 0 -40 0 -40 70 0 c40 0 70 -4 70 -10 0 -6 -35 -10 -85
-10 l-85 0 0 115 0 115 86 0 c64 0 85 -3 82 -12z m582 -38 l0 -50 70 0 70 0 0
50 c0 38 4 50 15 50 12 0 15 -19 15 -115 0 -96 -3 -115 -15 -115 -11 0 -15 12
-15 50 l0 50 -70 0 -70 0 0 -55 c0 -44 -3 -53 -15 -49 -12 5 -15 27 -15 113 0
59 3 111 7 114 16 17 23 3 23 -43z m398 30 c32 -30 30 -82 -4 -109 l-26 -20
31 -37 c46 -56 24 -65 -25 -10 -35 38 -49 47 -71 44 -24 -3 -28 -8 -31 -40 -2
-21 -7 -38 -13 -38 -5 0 -9 50 -9 115 l0 115 63 0 c50 0 68 -4 85 -20z m360 0
c12 -12 22 -25 22 -30 0 -16 -19 -11 -40 10 -34 34 -100 24 -100 -14 0 -29 18
-46 50 -46 14 0 40 -9 58 -20 31 -19 39 -41 26 -75 -8 -19 -55 -45 -84 -45
-32 0 -78 27 -85 51 -11 32 2 35 29 6 42 -46 124 -31 114 20 -2 11 -19 23 -48
31 -84 25 -90 29 -90 63 0 48 24 69 80 69 33 0 53 -6 68 -20z m280 -8 c58 -55
48 -150 -20 -192 -40 -24 -69 -25 -114 -4 -42 20 -64 59 -64 115 0 33 6 47 34
75 30 30 40 34 84 34 41 0 55 -5 80 -28z m142 -77 l0 -105 65 0 c37 0 65 -4
65 -10 0 -6 -33 -10 -80 -10 l-80 0 0 115 c0 96 3 115 15 115 12 0 15 -18 15
-105z m202 18 c4 -74 8 -89 27 -105 32 -25 67 -23 96 7 22 22 25 32 25 105 0
67 3 80 16 80 25 0 15 -160 -12 -197 -38 -51 -104 -54 -150 -8 -22 22 -24 32
-24 115 0 49 4 90 9 90 5 0 11 -39 13 -87z m426 75 c-3 -7 -23 -14 -46 -16
l-42 -3 0 -100 c0 -81 -3 -99 -15 -99 -12 0 -15 18 -15 99 l0 100 -37 3 c-20
2 -38 9 -41 16 -3 9 21 12 98 12 77 0 101 -3 98 -12z m82 -103 c0 -96 -3 -115
-15 -115 -12 0 -15 19 -15 115 0 96 3 115 15 115 12 0 15 -19 15 -115z m276
81 c28 -28 34 -42 34 -76 0 -52 -25 -95 -66 -115 -44 -21 -75 -19 -115 8 -57
39 -74 98 -44 157 22 43 53 60 108 60 42 0 54 -5 83 -34z m200 -51 c37 -47 70
-83 73 -80 5 6 6 15 9 108 1 31 7 57 12 57 6 0 10 -45 10 -115 0 -86 -3 -115
-12 -114 -7 0 -44 39 -83 87 l-70 87 -3 -88 c-2 -62 -6 -87 -15 -87 -9 0 -14
27 -16 95 -2 96 3 135 19 135 5 0 39 -38 76 -85z m344 58 c25 -33 10 -43 -19
-14 -25 25 -73 27 -95 5 -30 -30 -16 -47 56 -68 62 -18 84 -42 74 -82 -7 -25
-52 -54 -85 -54 -34 0 -72 23 -87 52 -19 36 0 38 28 3 34 -43 118 -31 118 17
0 19 -17 29 -87 47 -48 13 -67 38 -57 76 8 33 29 44 86 45 39 0 50 -4 68 -27z
m-5462 -715 c-3 -21 -9 -23 -65 -26 -59 -3 -63 -4 -63 -27 0 -14 3 -24 8 -24
4 1 28 1 55 0 40 -1 47 -4 47 -21 0 -18 -7 -20 -55 -20 -54 0 -55 0 -55 -30
l0 -30 65 0 c58 0 65 -2 65 -20 0 -19 -7 -20 -95 -20 l-95 0 0 120 0 120 96 0
c93 0 95 -1 92 -22z m322 -48 l55 -69 3 69 3 70 29 0 30 0 0 -120 0 -120 -27
1 c-22 0 -40 15 -83 66 l-55 66 -3 -66 c-3 -67 -3 -67 -32 -67 l-30 0 0 120 0
120 28 0 c21 -1 38 -15 82 -70z m660 -30 l0 -100 60 0 c53 0 60 -2 60 -20 0
-19 -7 -20 -90 -20 l-90 0 0 120 0 120 30 0 30 0 0 -100z m475 70 c8 -16 33
-70 54 -120 l40 -90 -30 0 c-22 0 -32 7 -41 25 -10 22 -17 25 -69 25 -52 0
-57 -2 -63 -25 -5 -20 -13 -25 -36 -25 -17 0 -30 2 -30 5 0 3 23 57 51 120 48
108 53 115 80 115 21 0 32 -7 44 -30z m455 5 c0 -22 -4 -25 -35 -25 l-35 0 0
-95 0 -95 -30 0 -30 0 0 95 0 95 -40 0 c-36 0 -40 3 -40 25 l0 25 105 0 105 0
0 -25z m260 -95 l0 -120 -30 0 -30 0 0 120 0 120 30 0 30 0 0 -120z m327 48
l58 -72 3 72 3 72 29 0 30 0 0 -120 0 -120 -29 0 c-24 0 -39 12 -81 65 -29 35
-56 62 -60 60 -4 -2 -6 -31 -6 -65 2 -59 1 -60 -26 -60 l-28 0 0 120 0 120 25
0 c18 0 39 -18 82 -72z m533 57 c58 -30 81 -122 43 -174 -50 -67 -154 -78
-211 -21 -54 53 -51 131 5 180 28 25 42 30 84 30 27 0 63 -7 79 -15z m456 -97
c27 -62 51 -116 52 -120 2 -4 -9 -8 -26 -8 -21 0 -32 7 -40 25 -10 22 -18 25
-67 25 -50 0 -56 -2 -65 -25 -7 -19 -17 -25 -41 -25 -17 0 -29 4 -27 9 2 4 25
58 53 120 48 107 51 111 81 111 29 0 32 -4 80 -112z m339 42 c22 -38 43 -70
47 -70 4 0 26 32 49 70 33 55 46 70 65 70 24 0 24 0 24 -120 l0 -120 -25 0
c-23 0 -24 3 -27 68 l-3 67 -35 -57 c-19 -32 -41 -58 -48 -58 -7 0 -27 23 -45
52 l-32 51 -3 -61 c-3 -61 -3 -62 -32 -62 l-30 0 0 120 0 120 28 0 c23 0 33
-10 67 -70z m593 48 c-3 -21 -9 -23 -65 -26 -59 -3 -63 -4 -63 -27 0 -23 3
-25 54 -25 45 0 54 -3 59 -20 5 -18 0 -20 -54 -20 -59 0 -59 0 -59 -30 l0 -30
65 0 c58 0 65 -2 65 -20 0 -19 -7 -20 -95 -20 l-95 0 0 120 0 120 96 0 c93 0
95 -1 92 -22z m395 2 c33 -27 43 -70 23 -108 -9 -17 -21 -32 -28 -34 -8 -3 -2
-17 16 -41 l28 -37 -34 0 c-27 0 -37 6 -51 30 -14 23 -25 30 -48 30 -26 0 -29
-3 -29 -30 0 -27 -3 -30 -30 -30 l-30 0 0 120 0 120 79 0 c63 0 83 -4 104 -20z
m307 -100 l0 -120 -30 0 -30 0 0 120 0 120 30 0 30 0 0 -120z m411 101 c22
-18 23 -21 8 -36 -13 -13 -21 -15 -37 -6 -34 18 -79 13 -102 -11 -58 -63 20
-154 98 -114 26 14 32 14 42 1 19 -23 5 -43 -40 -55 -46 -12 -92 -6 -128 17
-25 16 -52 69 -52 104 0 34 28 83 58 101 38 25 123 24 153 -1z m390 -44 c15
-34 38 -88 53 -119 l26 -58 -34 0 c-28 0 -35 5 -40 25 -6 23 -11 25 -65 25
-54 0 -59 -2 -65 -25 -5 -20 -13 -25 -36 -25 -17 0 -30 2 -30 5 0 3 23 57 51
120 50 111 53 115 83 115 29 0 33 -5 57 -63z"/>
<path d="M6789 7839 c-101 -90 -311 -274 -466 -411 -156 -137 -283 -254 -283
-260 0 -19 361 -3 450 20 283 74 452 211 515 419 29 95 13 346 -24 386 -4 4
-91 -65 -192 -154z"/>
<path d="M3630 6580 c0 -36 3 -40 24 -40 39 0 56 11 56 36 0 25 -26 44 -59 44
-18 0 -21 -6 -21 -40z"/>
<path d="M4070 6580 c0 -36 3 -40 24 -40 39 0 56 11 56 36 0 25 -26 44 -59 44
-18 0 -21 -6 -21 -40z"/>
<path d="M4300 6580 c0 -37 2 -40 28 -40 32 0 52 16 52 42 0 20 -28 38 -59 38
-18 0 -21 -6 -21 -40z"/>
<path d="M5617 6573 c-2 -10 -8 -26 -12 -35 -6 -15 -2 -18 24 -18 34 0 37 6
19 45 -13 29 -24 32 -31 8z"/>
<path d="M6888 6614 c-5 -4 -8 -36 -8 -71 l0 -63 40 0 c69 0 103 60 63 109
-18 22 -82 39 -95 25z"/>
<path d="M7640 6580 c0 -39 1 -40 35 -40 55 0 73 60 22 74 -49 13 -57 8 -57
-34z"/>
<path d="M7980 6595 c0 -22 4 -25 40 -25 33 0 40 4 40 19 0 21 -19 31 -56 31
-19 0 -24 -5 -24 -25z"/>
<path d="M7980 6505 c0 -25 3 -26 43 -23 34 2 42 7 42 23 0 16 -8 21 -42 23
-40 3 -43 2 -43 -23z"/>
<path d="M8580 6550 l0 -70 35 0 c70 0 102 77 49 119 -15 12 -40 21 -55 21
l-29 0 0 -70z"/>
<path d="M8845 6595 c-46 -45 -19 -115 43 -115 57 0 84 78 42 120 -27 27 -56
25 -85 -5z"/>
<path d="M9100 6579 l0 -40 38 3 c31 2 38 7 40 27 4 29 -20 51 -55 51 -20 0
-23 -5 -23 -41z"/>
<path d="M7290 6230 c-29 -29 -26 -74 6 -99 33 -26 58 -27 84 -1 41 41 12 120
-45 120 -14 0 -34 -9 -45 -20z"/>
<path d="M4760 6180 c0 -68 1 -70 26 -70 28 0 65 16 76 34 4 6 8 25 8 43 0 39
-30 63 -77 63 l-33 0 0 -70z"/>
<path d="M5538 6200 c-14 -34 -14 -35 10 -38 33 -5 35 0 18 39 l-14 34 -14
-35z"/>
<path d="M6262 6234 c-45 -31 -16 -124 38 -124 12 0 32 11 45 25 62 61 -11
150 -83 99z"/>
<path d="M4730 5042 c-112 -56 -102 -243 14 -287 61 -23 125 -14 166 25 29 27
30 31 30 112 0 46 -6 94 -13 108 -16 33 -72 60 -122 60 -22 0 -56 -8 -75 -18z"/>
<path d="M5993 5050 c-18 -10 -39 -33 -48 -50 l-16 -30 131 0 c117 0 130 2
130 18 -1 21 -28 55 -57 71 -34 17 -104 13 -140 -9z"/>
<path d="M8563 5044 c-115 -59 -99 -254 24 -295 48 -15 117 -3 153 27 30 26
30 27 30 128 l0 102 -31 23 c-41 31 -131 38 -176 15z"/>
<path d="M5887 4299 c-20 -11 -23 -49 -5 -67 16 -16 73 -15 85 1 15 19 -57 78
-80 66z"/>
<path d="M4733 4340 l-22 -50 45 0 c42 0 45 1 38 23 -7 23 -33 77 -37 77 -1 0
-12 -23 -24 -50z"/>
<path d="M6538 4355 l-3 -45 46 0 c59 0 88 27 71 65 -10 22 -18 25 -61 25
l-49 0 -4 -45z"/>
<path d="M7173 4398 c-12 -6 -29 -26 -38 -45 -45 -95 71 -178 146 -104 45 46
35 117 -20 146 -34 17 -57 18 -88 3z"/>
<path d="M8298 4394 c-57 -31 -65 -98 -18 -146 27 -27 36 -30 71 -25 53 7 79
37 79 93 0 35 -5 47 -31 68 -34 29 -61 32 -101 10z"/>
<path d="M4902 3607 c-17 -46 -16 -47 23 -45 19 1 35 3 35 4 0 10 -35 74 -40
74 -3 0 -11 -15 -18 -33z"/>
<path d="M6419 3647 c-55 -41 -16 -137 55 -137 30 0 69 45 69 80 0 57 -77 93
-124 57z"/>
<path d="M6897 3611 c-10 -23 -17 -43 -17 -44 0 -2 16 -3 35 -4 32 -1 35 2 29
21 -4 11 -12 32 -19 45 -12 23 -12 23 -28 -18z"/>
<path d="M8200 3620 c0 -39 1 -40 34 -40 19 0 42 7 50 16 33 33 11 64 -46 64
-38 0 -38 0 -38 -40z"/>
<path d="M9352 3607 c-16 -44 -16 -44 11 -41 12 1 28 3 34 3 9 1 8 10 -4 36
-9 19 -19 35 -23 35 -3 0 -11 -15 -18 -33z"/>
</g>
</svg>
