<?xml version="1.0" standalone="no"?>
<!DOCTYPE svg PUBLIC "-//W3C//DTD SVG 20010904//EN"
 "http://www.w3.org/TR/2001/REC-SVG-20010904/DTD/svg10.dtd">
<svg version="1.0" xmlns="http://www.w3.org/2000/svg"
 width="1200.000000pt" height="800.000000pt" viewBox="0 0 1200.000000 800.000000"
 preserveAspectRatio="xMidYMid meet">

<g transform="translate(0.000000,800.000000) scale(0.100000,-0.100000)"
fill="#000000" stroke="none">
<path d="M2697 7882 l-48 -3 40 -77 c46 -90 71 -146 71 -160 0 -5 31 -39 69
-74 55 -52 69 -70 64 -87 -3 -12 -1 -21 6 -21 6 0 11 -5 11 -10 0 -7 -13 -8
-35 -4 -44 8 -45 -5 -2 -36 17 -13 36 -30 40 -37 5 -8 16 -11 26 -8 13 4 35
-10 71 -43 50 -46 52 -51 46 -85 -7 -36 -6 -37 71 -98 43 -34 81 -70 85 -79
10 -28 24 -31 42 -11 15 17 15 20 -7 52 -15 22 -32 35 -50 37 -15 2 -28 6 -28
10 -1 4 -3 16 -4 27 -2 11 -72 124 -157 250 -86 127 -158 239 -161 250 -11 34
-24 145 -17 145 3 0 15 -7 26 -15 10 -8 29 -15 42 -15 30 0 82 -39 82 -61 0
-53 143 -264 179 -264 9 0 16 -8 16 -19 0 -10 13 -28 29 -40 16 -12 43 -33 60
-49 28 -25 29 -29 17 -49 -12 -19 -11 -23 5 -35 10 -7 23 -13 29 -13 16 0 75
-57 75 -72 0 -7 43 -56 95 -108 52 -52 95 -99 95 -105 0 -6 8 -26 19 -45 13
-25 16 -41 10 -58 -5 -13 -6 -28 -3 -33 3 -6 0 -16 -6 -24 -6 -8 -9 -23 -5
-34 8 -26 71 -81 92 -81 10 0 33 -15 53 -34 34 -34 54 -42 586 -246 14 -6 38
0 78 20 81 39 105 30 236 -81 94 -79 109 -89 145 -89 22 0 50 -6 61 -14 37
-26 133 -48 179 -42 35 6 44 4 49 -11 4 -10 2 -19 -5 -22 -6 -2 23 -38 64 -80
71 -71 102 -121 78 -121 -6 0 -11 -6 -11 -14 0 -19 57 -60 64 -47 4 5 2 12 -4
16 -5 3 -10 11 -10 17 0 6 18 -6 40 -26 22 -20 44 -36 48 -36 18 0 51 -41 45
-56 -5 -13 -2 -15 14 -10 13 4 23 2 26 -7 3 -8 27 -18 54 -22 26 -4 58 -16 70
-27 12 -11 26 -17 32 -13 6 3 16 -5 23 -19 13 -29 25 -32 52 -11 19 14 19 15
1 34 -20 23 -14 51 11 51 9 0 25 11 36 25 11 14 30 25 43 25 15 0 31 -10 41
-25 9 -14 25 -25 35 -25 10 0 21 -5 25 -12 4 -6 3 -8 -3 -5 -6 4 -16 0 -23 -8
-11 -13 -9 -20 8 -38 50 -54 64 -98 67 -198 1 -53 5 -101 9 -107 3 -6 -3 -26
-14 -44 -11 -18 -24 -43 -30 -55 -6 -15 -18 -23 -35 -23 -16 0 -28 -7 -31 -17
-3 -10 -10 -26 -15 -35 -5 -10 -9 -26 -9 -37 0 -14 -12 -23 -42 -33 -36 -11
-43 -18 -49 -46 -4 -18 -14 -41 -23 -51 -9 -10 -14 -25 -10 -34 3 -9 -2 -19
-14 -26 -16 -8 -19 -20 -18 -63 2 -76 24 -99 60 -62 14 13 17 14 22 1 6 -16
-21 -77 -35 -77 -14 0 -91 -77 -91 -91 0 -8 9 -32 20 -54 13 -26 17 -42 10
-49 -19 -19 -10 -33 43 -68 52 -35 57 -42 197 -309 79 -150 143 -283 142 -294
-4 -55 82 -131 252 -220 80 -42 146 -82 146 -89 0 -8 17 -25 39 -40 l38 -27
17 -124 c15 -105 16 -137 6 -197 -6 -40 -15 -80 -20 -89 -4 -8 -6 -55 -5 -104
2 -51 -1 -95 -7 -102 -5 -7 -7 -26 -3 -42 4 -20 -5 -67 -29 -150 -28 -94 -34
-130 -30 -165 5 -32 3 -51 -7 -62 -11 -13 -14 -54 -14 -165 0 -123 -3 -150
-17 -165 -9 -11 -19 -37 -23 -59 -4 -22 -22 -72 -40 -111 -18 -39 -36 -86 -40
-104 -4 -20 -15 -34 -26 -37 -23 -6 -23 -22 -3 -119 16 -78 12 -128 -11 -141
-7 -5 -15 -24 -18 -43 -3 -19 -9 -47 -12 -62 -5 -19 -1 -34 16 -57 20 -28 24
-29 39 -16 19 17 70 20 70 5 0 -5 -4 -10 -10 -10 -5 0 -7 -13 -4 -28 4 -19 0
-34 -11 -45 -9 -9 -13 -22 -10 -27 4 -6 0 -21 -8 -33 -8 -13 -12 -35 -10 -53
3 -18 0 -35 -6 -39 -8 -4 -3 -14 14 -27 l26 -20 -27 -35 c-14 -19 -23 -37 -20
-40 3 -3 -1 -11 -9 -17 -8 -6 -16 -29 -18 -51 -3 -43 -12 -65 -28 -65 -5 0 -9
7 -9 15 0 9 -9 15 -22 16 -22 0 -22 1 -3 9 19 7 18 9 -8 19 -41 16 -48 14 -41
-14 5 -21 3 -25 -18 -25 -23 0 -48 -16 -48 -31 0 -3 11 -4 24 -2 14 3 34 -2
46 -10 12 -9 28 -13 35 -11 6 3 17 -2 24 -9 9 -12 8 -18 -5 -32 -22 -21 -9
-47 27 -55 13 -3 25 -14 27 -23 3 -13 -4 -17 -25 -17 -16 0 -34 5 -41 12 -19
19 -14 -3 5 -24 14 -15 15 -21 4 -27 -10 -6 -10 -10 -1 -16 8 -5 6 -12 -6 -26
-12 -14 -14 -23 -7 -30 8 -8 13 -8 17 0 12 19 21 12 22 -18 1 -22 -3 -28 -14
-23 -12 4 -14 0 -9 -17 3 -13 2 -34 -3 -47 -6 -15 -6 -24 0 -24 6 0 10 -7 10
-15 0 -18 12 -19 28 -3 9 9 12 9 12 0 0 -7 -9 -21 -20 -32 -24 -24 -25 -30 -4
-30 13 0 15 -7 11 -29 -7 -31 7 -51 36 -51 14 0 17 5 12 20 -8 25 19 38 41 19
12 -10 15 -25 12 -61 l-5 -48 44 0 c27 0 42 -4 38 -10 -3 -5 -17 -10 -30 -10
-13 0 -27 -4 -30 -10 -3 -5 -14 -10 -25 -10 -13 0 -17 -7 -16 -25 1 -27 23
-34 32 -10 4 8 13 15 22 15 9 0 26 10 39 22 18 17 26 19 35 10 9 -9 7 -17 -10
-35 -12 -13 -22 -29 -22 -36 0 -8 -6 -11 -15 -7 -49 20 -50 19 -26 -7 17 -19
34 -27 58 -27 31 0 33 2 33 33 0 55 20 85 70 104 25 9 51 21 57 26 7 5 28 6
48 3 l34 -7 -13 32 c-8 18 -24 37 -37 41 -17 7 -20 11 -10 17 7 5 12 14 11 22
-1 8 -2 33 -1 56 1 35 6 45 27 56 17 9 23 17 15 21 -6 4 -11 12 -11 18 0 6 9
3 21 -8 21 -19 21 -18 40 5 10 13 19 34 19 48 0 38 15 58 83 109 34 26 64 49
67 51 2 2 -1 8 -8 12 -10 6 -10 11 3 21 34 28 10 70 -41 70 -24 0 -40 9 -63
35 -35 40 -37 54 -16 95 11 21 35 39 79 59 67 32 96 70 96 126 0 36 15 62 47
79 l27 13 -22 12 c-12 6 -22 16 -22 20 0 19 30 19 53 0 14 -10 27 -19 30 -19
15 0 35 32 30 50 -6 23 -43 28 -43 5 0 -21 -20 -18 -49 6 -17 14 -27 36 -32
71 -12 72 -1 82 57 56 83 -36 195 -1 162 51 -10 17 -10 25 0 39 23 32 25 43
12 68 -8 15 -10 28 -4 33 5 4 65 14 134 21 139 14 213 32 236 58 41 46 82 111
88 140 7 28 5 32 -13 32 -26 0 -44 34 -36 69 5 25 0 32 -50 70 -52 39 -55 44
-55 86 0 45 17 95 31 95 5 0 4 -12 -1 -26 -16 -40 -12 -69 13 -91 35 -31 144
-65 215 -66 l63 -1 79 79 c83 83 132 160 123 194 -4 15 6 35 29 64 20 23 38
52 42 64 5 16 15 23 32 23 13 0 24 -5 24 -10 0 -25 -33 -71 -77 -109 -27 -22
-43 -41 -38 -41 24 0 100 84 181 200 98 141 109 165 100 223 -4 23 -9 56 -11
74 -3 17 -1 35 5 38 5 3 10 18 10 32 0 16 7 27 19 30 11 3 22 11 25 19 5 13
49 45 124 91 24 15 45 20 64 16 18 -3 28 -1 28 6 0 7 14 17 30 23 17 5 35 19
41 29 7 14 20 20 47 19 155 -2 151 -2 158 26 4 17 18 31 39 40 26 11 34 21 39
51 4 21 20 57 37 80 16 23 29 45 29 51 0 5 9 17 20 27 15 14 20 31 20 70 0 36
6 60 19 76 16 20 19 51 26 204 4 111 11 185 18 194 7 8 11 23 9 33 -3 15 1 18
22 12 21 -5 30 1 60 43 20 26 36 56 36 66 0 9 35 54 78 100 112 119 111 117
121 193 9 62 8 79 -12 145 l-23 74 -50 5 c-51 5 -135 50 -178 96 -11 13 -49
39 -84 58 -59 33 -68 35 -145 34 -61 -1 -95 4 -134 19 -49 20 -97 20 -109 2
-3 -5 -10 -9 -15 -9 -6 0 -7 5 -4 10 3 6 4 10 0 10 -3 0 -10 -11 -15 -25 -5
-14 -14 -25 -20 -25 -15 0 -12 21 7 42 10 12 13 22 8 26 -6 4 -10 14 -10 22 0
8 -13 21 -30 30 -16 8 -31 18 -33 23 -2 4 -14 7 -27 7 -13 0 -27 4 -30 10 -5
8 -58 26 -109 36 -38 7 -67 -7 -73 -37 -4 -19 -12 -29 -24 -29 -16 0 -31 -15
-67 -66 -13 -19 -12 -8 3 27 5 14 -3 16 -57 15 l-63 -1 -3 33 c-4 38 -11 40
-49 8 -27 -22 -49 -30 -81 -27 -7 0 -10 6 -7 12 4 5 17 9 30 7 25 -3 89 48 79
64 -3 4 -10 5 -17 1 -13 -8 11 26 77 111 25 33 46 63 46 67 0 4 -15 17 -34 28
-29 19 -36 31 -52 93 -18 75 -52 125 -79 114 -8 -3 -15 0 -15 7 0 7 -13 26
-28 44 -20 23 -48 37 -111 57 -46 14 -88 23 -94 19 -14 -8 -86 -10 -124 -2
-18 4 -36 2 -42 -4 -8 -8 -24 3 -56 36 -43 45 -65 58 -65 37 0 -5 -4 -10 -8
-10 -4 0 -6 16 -4 35 4 29 -1 39 -28 62 -62 52 -94 63 -162 58 -44 -4 -57 -3
-42 4 21 9 50 69 38 80 -12 12 -85 29 -104 24 -14 -4 -20 0 -20 11 0 10 -5 13
-17 9 -10 -4 -14 -2 -9 5 3 6 1 14 -6 18 -8 5 0 12 23 20 32 12 30 13 -31 7
-36 -3 -84 -14 -108 -25 -56 -23 -103 -23 -133 1 -21 16 -34 18 -94 11 -80 -8
-95 -5 -95 19 0 25 -39 58 -78 66 -25 5 -52 0 -108 -21 -81 -31 -91 -49 -58
-99 19 -29 15 -64 -8 -79 -14 -8 -22 -6 -38 11 -24 27 -26 60 -3 85 14 16 15
24 4 60 -12 40 -12 43 13 61 14 10 26 25 26 33 0 27 -29 26 -61 0 -47 -40
-104 -66 -144 -66 -21 0 -35 -5 -35 -12 0 -7 -4 -19 -9 -27 -8 -12 -12 -11
-27 4 -17 17 -19 16 -46 -14 -17 -19 -28 -43 -28 -60 0 -31 -11 -45 -66 -87
-25 -19 -34 -34 -34 -55 l0 -29 -42 47 c-79 85 -154 101 -249 52 -101 -50
-143 -35 -235 86 -46 61 -53 85 -43 140 5 26 11 75 13 107 2 33 9 65 15 71 6
6 11 30 11 54 0 37 -3 43 -25 49 -14 3 -32 15 -39 26 -10 14 -32 22 -82 28
-38 5 -73 6 -78 2 -17 -10 -226 -10 -232 0 -4 5 6 22 20 37 21 22 26 37 26 77
0 27 4 55 9 63 6 9 5 21 -2 32 -15 25 0 37 17 14 12 -17 15 -14 26 40 17 89
29 121 50 140 21 19 25 42 12 60 -4 7 -47 9 -125 4 -104 -6 -121 -9 -142 -29
-18 -17 -25 -34 -25 -62 0 -47 -30 -108 -62 -127 -13 -8 -43 -18 -68 -22 -25
-3 -80 -14 -123 -24 -72 -17 -78 -17 -90 -1 -6 9 -32 20 -57 24 l-45 8 -77
139 -77 140 0 95 c-1 125 8 200 24 200 12 0 25 21 25 41 0 4 -26 16 -57 24
-93 26 -99 30 -116 79 -9 25 -34 67 -55 93 -22 27 -43 59 -47 73 -18 61 -97
102 -149 79 -14 -7 -26 -15 -26 -18 0 -3 -9 -16 -18 -29 l-18 -24 -56 28 c-51
25 -58 32 -67 71 -8 28 -20 48 -39 60 -15 9 -45 32 -68 50 -38 30 -47 33 -113
33 -56 0 -71 -3 -71 -15 0 -12 -19 -15 -115 -15 l-114 0 -148 57 c-149 57
-183 63 -296 55z"/>
<path d="M5415 7022 c-82 -26 -95 -34 -95 -64 0 -15 4 -15 48 3 26 11 59 27
74 35 42 23 111 13 94 -14 -6 -10 40 -23 81 -22 12 0 39 -11 59 -25 20 -14 51
-25 68 -25 35 0 56 -15 56 -41 0 -19 20 -29 59 -29 15 0 36 -6 46 -14 18 -13
17 -14 -8 -31 -25 -16 -29 -44 -4 -28 6 4 51 6 99 5 51 -2 89 2 93 8 3 5 19
10 36 10 16 0 29 3 29 8 -1 12 -69 42 -95 42 -13 0 -28 6 -32 13 -14 21 -241
127 -274 127 -7 0 -24 10 -38 23 -54 49 -177 57 -296 19z"/>
<path d="M6243 6773 c-19 -7 -16 -21 7 -28 11 -3 20 -15 20 -25 0 -10 5 -22
10 -25 15 -9 12 -42 -5 -48 -8 -4 -40 -2 -71 3 -63 10 -85 5 -57 -15 12 -8 47
-12 102 -11 70 1 88 -2 109 -18 24 -19 25 -19 38 -1 7 10 15 22 16 27 2 6 13
5 29 0 16 -7 31 -6 43 0 10 6 40 8 67 6 60 -6 82 11 54 42 -10 11 -24 20 -30
20 -17 0 -66 26 -75 39 -9 15 -115 35 -137 26 -30 -13 -53 -12 -64 2 -12 13
-33 16 -56 6z"/>
</g>
</svg>
