<?xml version="1.0" encoding="UTF-8"?>
<!DOCTYPE svg PUBLIC "-//W3C//DTD SVG 1.1//EN" "http://www.w3.org/Graphics/SVG/1.1/DTD/svg11.dtd">
<svg xmlns="http://www.w3.org/2000/svg" version="1.1" width="1200px" height="800px" style="shape-rendering:geometricPrecision; text-rendering:geometricPrecision; image-rendering:optimizeQuality; fill-rule:evenodd; clip-rule:evenodd" xmlns:xlink="http://www.w3.org/1999/xlink">
<g><path style="opacity:0.831" fill="#cf006f" d="M 356.5,23.5 C 336.167,23.5 315.833,23.5 295.5,23.5C 293.629,23.1412 292.129,22.1412 291,20.5C 288.618,21.8663 286.452,21.533 284.5,19.5C 283.295,20.5769 282.628,21.9102 282.5,23.5C 278.5,23.5 274.5,23.5 270.5,23.5C 267.71,19.5844 265.71,15.251 264.5,10.5C 270.899,9.56618 277.566,9.56618 284.5,10.5C 293.294,14.4876 302.294,17.9876 311.5,21C 319.827,21.4997 328.16,21.6664 336.5,21.5C 336.5,20.5 336.5,19.5 336.5,18.5C 341.511,18.3341 346.511,18.5007 351.5,19C 353.24,20.517 354.906,22.017 356.5,23.5 Z"/></g>
<g><path style="opacity:0.853" fill="#cb006e" d="M 270.5,23.5 C 274.5,23.5 278.5,23.5 282.5,23.5C 283.877,27.0682 285.043,30.7349 286,34.5C 294.722,47.0482 303.222,59.7148 311.5,72.5C 309.167,72.5 306.833,72.5 304.5,72.5C 300.981,67.5789 296.315,64.4122 290.5,63C 288.486,60.655 286.153,58.655 283.5,57C 282.663,55.9887 282.33,54.8221 282.5,53.5C 284.167,53.5 285.833,53.5 287.5,53.5C 287.815,51.7741 287.981,50.1075 288,48.5C 283.366,44.8679 279.033,40.8679 275,36.5C 273.493,32.1555 271.993,27.8222 270.5,23.5 Z"/></g>
<g><path style="opacity:0.975" fill="#ca006e" d="M 295.5,23.5 C 315.833,23.5 336.167,23.5 356.5,23.5C 359.37,25.4081 362.203,27.4081 365,29.5C 365.78,32.5117 366.947,35.3451 368.5,38C 371.397,39.7367 374.397,41.2367 377.5,42.5C 383.384,32.5271 390.217,31.8604 398,40.5C 400.081,46.3265 403.414,51.3265 408,55.5C 409.322,58.637 410.488,61.8037 411.5,65C 416.663,67.124 421.996,68.624 427.5,69.5C 427.5,70.5 427.5,71.5 427.5,72.5C 394.167,72.5 360.833,72.5 327.5,72.5C 326.755,70.3285 326.588,67.9952 327,65.5C 323.912,62.5511 320.579,59.8844 317,57.5C 316.781,56.062 316.281,54.7287 315.5,53.5C 314.575,54.6405 313.741,54.6405 313,53.5C 309.715,48.5463 306.048,43.8797 302,39.5C 299.533,34.2401 297.366,28.9067 295.5,23.5 Z"/></g>
<g><path style="opacity:0.814" fill="#c5006e" d="M 304.5,72.5 C 306.833,72.5 309.167,72.5 311.5,72.5C 314.81,75.7906 316.477,79.7906 316.5,84.5C 318.591,84.3184 320.591,84.6518 322.5,85.5C 323.757,87.6789 325.257,89.6789 327,91.5C 326.628,93.92 325.295,95.92 323,97.5C 317.961,90.6291 311.795,84.9624 304.5,80.5C 304.051,77.9564 304.051,75.2898 304.5,72.5 Z"/></g>
<g><path style="opacity:0.982" fill="#c4016e" d="M 327.5,72.5 C 360.833,72.5 394.167,72.5 427.5,72.5C 424.958,74.9272 423.458,77.9272 423,81.5C 422.225,90.2145 422.392,98.8812 423.5,107.5C 402.167,107.5 380.833,107.5 359.5,107.5C 357.895,105.52 356.728,103.187 356,100.5C 350,94.5 344,88.5 338,82.5C 337.667,81.1667 337.333,79.8333 337,78.5C 334.157,75.8373 330.991,73.8373 327.5,72.5 Z"/></g>
<g><path style="opacity:0.812" fill="#c2016e" d="M 590.5,107.5 C 583.167,107.5 575.833,107.5 568.5,107.5C 566.804,107.315 565.471,106.481 564.5,105C 560.079,104.583 555.746,103.75 551.5,102.5C 554.255,100.004 553.588,99.0042 549.5,99.5C 543.375,101.432 537.375,103.765 531.5,106.5C 530.146,103.933 530.48,101.599 532.5,99.5C 540.57,95.7974 548.903,93.7974 557.5,93.5C 561.589,94.3628 565.589,95.5295 569.5,97C 570.357,97.6891 571.023,98.5224 571.5,99.5C 576.85,101.45 582.184,103.283 587.5,105C 588.942,105.377 589.942,106.21 590.5,107.5 Z"/></g>
<g><path style="opacity:0.953" fill="#be016d" d="M 359.5,107.5 C 380.833,107.5 402.167,107.5 423.5,107.5C 428.226,115.276 432.726,123.276 437,131.5C 440.4,132.54 443.9,133.206 447.5,133.5C 447.5,134.5 447.5,135.5 447.5,136.5C 455.906,135.319 464.239,133.819 472.5,132C 476.77,130.73 479.27,127.896 480,123.5C 479.272,117.857 481.105,113.357 485.5,110C 493.264,109.033 501.264,108.2 509.5,107.5C 511.088,109.113 512.088,111.113 512.5,113.5C 507.24,120.178 504.573,127.845 504.5,136.5C 503.209,136.263 502.209,136.596 501.5,137.5C 460.833,137.5 420.167,137.5 379.5,137.5C 375.869,136.392 372.869,134.226 370.5,131C 363.945,129.446 359.611,125.446 357.5,119C 358.022,118.05 358.689,117.216 359.5,116.5C 359.803,113.531 359.803,110.531 359.5,107.5 Z M 500.5,132.5 C 501.573,133.251 501.74,134.251 501,135.5C 499.272,134.648 499.105,133.648 500.5,132.5 Z"/></g>
<g><path style="opacity:0.842" fill="#bf026d" d="M 568.5,107.5 C 575.833,107.5 583.167,107.5 590.5,107.5C 593.273,107.812 595.607,108.978 597.5,111C 599.134,111.494 600.801,111.66 602.5,111.5C 602.5,112.5 602.5,113.5 602.5,114.5C 607.534,114.399 611.867,116.066 615.5,119.5C 615.291,120.086 614.957,120.586 614.5,121C 611.957,121.14 609.623,121.806 607.5,123C 601.129,123.008 594.796,123.174 588.5,123.5C 587.5,123.167 586.5,122.833 585.5,122.5C 586.748,120.541 588.415,119.041 590.5,118C 587.623,116.873 584.623,116.206 581.5,116C 579.422,114.514 578.089,112.514 577.5,110C 574.203,109.796 571.203,108.963 568.5,107.5 Z"/></g>
<g><path style="opacity:0.851" fill="#bc016d" d="M 640.5,137.5 C 637.833,137.5 635.167,137.5 632.5,137.5C 627.283,137.242 622.116,137.575 617,138.5C 613.442,137.705 612.275,135.705 613.5,132.5C 617.473,133.239 621.473,133.905 625.5,134.5C 626.442,134.392 627.275,134.059 628,133.5C 627.973,131.583 627.139,129.916 625.5,128.5C 625.709,127.914 626.043,127.414 626.5,127C 625.095,125.731 623.429,125.231 621.5,125.5C 621.379,122.459 622.879,120.792 626,120.5C 628.262,121.382 630.429,122.382 632.5,123.5C 634.318,122.364 636.318,121.697 638.5,121.5C 642.201,122.175 645.868,123.009 649.5,124C 652.166,127.004 655.499,129.004 659.5,130C 663.492,132.902 663.158,135.402 658.5,137.5C 652.3,136.729 646.3,136.729 640.5,137.5 Z"/></g>
<g><path style="opacity:0.956" fill="#b8026d" d="M 379.5,137.5 C 420.167,137.5 460.833,137.5 501.5,137.5C 500.804,141.452 500.304,145.452 500,149.5C 498.692,151.641 497.192,153.641 495.5,155.5C 500.814,155.517 506.148,155.85 511.5,156.5C 518.705,154.6 526.039,154.767 533.5,157C 534.723,160.223 537.056,161.889 540.5,162C 541.337,163.011 541.67,164.178 541.5,165.5C 516.167,165.5 490.833,165.5 465.5,165.5C 461.041,162.213 456.708,158.713 452.5,155C 450.109,154.713 447.776,154.213 445.5,153.5C 441.262,156.524 436.596,158.024 431.5,158C 413.948,151.433 396.615,144.6 379.5,137.5 Z"/></g>
<g><path style="opacity:0.659" fill="#ba026c" d="M 632.5,137.5 C 635.167,137.5 637.833,137.5 640.5,137.5C 640.288,139.384 639.288,140.717 637.5,141.5C 635.79,140.113 634.123,138.779 632.5,137.5 Z"/></g>
<g><path style="opacity:0.949" fill="#b2036c" d="M 465.5,165.5 C 490.833,165.5 516.167,165.5 541.5,165.5C 539.238,172.551 538.071,179.884 538,187.5C 537.308,188.025 536.808,188.692 536.5,189.5C 536.999,191.891 537.332,194.224 537.5,196.5C 531.5,196.5 525.5,196.5 519.5,196.5C 514.535,192.037 509.702,187.37 505,182.5C 504.689,181.258 505.189,180.258 506.5,179.5C 505.758,178.713 504.925,178.047 504,177.5C 501.879,179.457 499.379,179.957 496.5,179C 491.465,178.245 486.798,176.579 482.5,174C 475.157,174.485 469.491,171.651 465.5,165.5 Z"/></g>
<g><path style="opacity:0.781" fill="#af036c" d="M 635.5,196.5 C 628.167,196.5 620.833,196.5 613.5,196.5C 613.414,195.504 613.748,194.671 614.5,194C 622.731,193.551 629.731,190.384 635.5,184.5C 636.736,185.246 638.07,185.579 639.5,185.5C 639.323,189.526 637.323,192.359 633.5,194C 634.381,194.708 635.047,195.542 635.5,196.5 Z"/></g>
<g><path style="opacity:0.792" fill="#af046c" d="M 662.5,196.5 C 655.167,196.5 647.833,196.5 640.5,196.5C 645.964,192.466 651.964,191.3 658.5,193C 660.324,193.66 661.657,194.827 662.5,196.5 Z"/></g>
<g><path style="opacity:0.932" fill="#ab036b" d="M 613.5,196.5 C 620.833,196.5 628.167,196.5 635.5,196.5C 635.351,197.552 635.517,198.552 636,199.5C 636.918,197.624 638.418,196.624 640.5,196.5C 647.833,196.5 655.167,196.5 662.5,196.5C 663.947,197.622 664.947,199.122 665.5,201C 669.872,201.079 674.206,200.579 678.5,199.5C 680.517,200.174 682.183,201.341 683.5,203C 685.167,203.167 686.833,203.333 688.5,203.5C 696.026,200.825 703.86,199.158 712,198.5C 713.826,199.01 713.993,199.844 712.5,201C 710.833,201.333 709.167,201.667 707.5,202C 709.734,203.234 711.234,205.067 712,207.5C 712.388,206.572 713.055,205.905 714,205.5C 717.431,206.811 720.931,207.811 724.5,208.5C 723.929,211.477 722.929,214.31 721.5,217C 724.514,217.128 727.514,217.128 730.5,217C 732.993,218.419 735.326,219.919 737.5,221.5C 689.5,221.5 641.5,221.5 593.5,221.5C 593.167,220.167 592.833,220.167 592.5,221.5C 588.5,221.5 584.5,221.5 580.5,221.5C 580.611,220.883 580.944,220.383 581.5,220C 579.395,218.807 577.728,217.14 576.5,215C 574.833,214.333 573.167,214.333 571.5,215C 569.8,218.097 567.466,220.263 564.5,221.5C 560.5,221.5 556.5,221.5 552.5,221.5C 547.161,220.632 541.828,219.632 536.5,218.5C 537.138,216.54 537.138,214.707 536.5,213C 533.241,211.789 530.408,209.956 528,207.5C 527,208.167 526,208.833 525,209.5C 523.185,207.595 521.185,205.928 519,204.5C 518.289,202.633 518.789,201.133 520.5,200C 519.663,198.989 519.33,197.822 519.5,196.5C 525.5,196.5 531.5,196.5 537.5,196.5C 540.515,202.687 544.515,208.187 549.5,213C 553.097,214.277 556.764,214.61 560.5,214C 572.511,206.118 583.011,207.951 592,219.5C 592.273,217.671 593.107,216.171 594.5,215C 597.102,212.869 599.768,211.035 602.5,209.5C 601.711,203.413 603.878,198.746 609,195.5C 610.512,196.257 611.846,197.257 613,198.5C 613.464,197.906 613.631,197.239 613.5,196.5 Z M 635.5,202.5 C 638.702,204.592 639.869,207.592 639,211.5C 638.439,212.022 637.772,212.355 637,212.5C 632.162,210.193 631.662,206.859 635.5,202.5 Z"/></g>
<g><path style="opacity:0.742" fill="#a7046b" d="M 552.5,221.5 C 556.5,221.5 560.5,221.5 564.5,221.5C 566.385,223.053 567.385,225.053 567.5,227.5C 565.184,228.36 562.851,228.86 560.5,229C 559.54,227.581 558.707,226.081 558,224.5C 555.497,225.238 553.663,224.238 552.5,221.5 Z"/></g>
<g><path style="opacity:0.984" fill="#a5046b" d="M 580.5,221.5 C 584.5,221.5 588.5,221.5 592.5,221.5C 592.833,221.5 593.167,221.5 593.5,221.5C 641.5,221.5 689.5,221.5 737.5,221.5C 739.175,223.002 741.008,224.335 743,225.5C 743.202,227.256 743.702,228.922 744.5,230.5C 748.492,232.997 751.992,235.997 755,239.5C 761.471,239.11 767.971,238.776 774.5,238.5C 779.973,239.491 785.306,240.991 790.5,243C 791.381,243.708 792.047,244.542 792.5,245.5C 724.5,245.5 656.5,245.5 588.5,245.5C 588.871,241.633 588.371,237.633 587,233.5C 584.549,229.594 582.382,225.594 580.5,221.5 Z"/></g>
<g><path style="opacity:0.992" fill="#a1046b" d="M 588.5,245.5 C 656.5,245.5 724.5,245.5 792.5,245.5C 794.27,247.113 795.436,249.113 796,251.5C 796.561,250.978 797.228,250.645 798,250.5C 800.736,251.761 802.569,253.761 803.5,256.5C 732.167,256.5 660.833,256.5 589.5,256.5C 588.722,255.844 588.056,255.011 587.5,254C 588.348,251.23 588.681,248.397 588.5,245.5 Z"/></g>
<g><path style="opacity:0.992" fill="#9e056a" d="M 589.5,256.5 C 660.833,256.5 732.167,256.5 803.5,256.5C 805.102,260.239 806.102,264.239 806.5,268.5C 730.5,268.5 654.5,268.5 578.5,268.5C 578.611,267.883 578.944,267.383 579.5,267C 581.18,266.966 582.68,266.799 584,266.5C 586.301,263.43 588.134,260.096 589.5,256.5 Z"/></g>
<g><path style="opacity:0.993" fill="#99056a" d="M 578.5,268.5 C 654.5,268.5 730.5,268.5 806.5,268.5C 808.34,270.669 810.674,272.002 813.5,272.5C 811.806,279.703 808.139,285.87 802.5,291C 803.337,292.011 803.67,293.178 803.5,294.5C 723.5,294.5 643.5,294.5 563.5,294.5C 565.2,290.056 566.533,285.389 567.5,280.5C 570.539,279.431 573.539,278.265 576.5,277C 575.124,274.46 575.79,272.46 578.5,271C 577.226,270.023 577.226,269.189 578.5,268.5 Z"/></g>
<g><path style="opacity:0.993" fill="#940669" d="M 563.5,294.5 C 643.5,294.5 723.5,294.5 803.5,294.5C 803.5,294.833 803.5,295.167 803.5,295.5C 802.833,295.5 802.5,295.833 802.5,296.5C 802.167,296.5 801.833,296.5 801.5,296.5C 721.167,296.5 640.833,296.5 560.5,296.5C 561.29,295.599 562.29,294.932 563.5,294.5 Z"/></g>
<g><path style="opacity:0.852" fill="#95066a" d="M 844.5,296.5 C 838.5,296.5 832.5,296.5 826.5,296.5C 826.804,295.85 827.137,295.183 827.5,294.5C 830.157,293.741 832.823,293.074 835.5,292.5C 838.285,294.568 841.285,295.902 844.5,296.5 Z"/></g>
<g><path style="opacity:0.981" fill="#920669" d="M 803.5,295.5 C 805.821,297.09 806.821,299.423 806.5,302.5C 810.24,302.759 813.906,302.426 817.5,301.5C 818.251,302.376 818.751,303.376 819,304.5C 821.491,301.705 823.991,299.038 826.5,296.5C 832.5,296.5 838.5,296.5 844.5,296.5C 848.141,297.985 851.808,299.485 855.5,301C 858.277,303.035 859.444,305.535 859,308.5C 862.612,307.813 866.445,307.646 870.5,308C 875.019,309.553 879.519,311.053 884,312.5C 887.183,310.477 890.683,309.977 894.5,311C 898.56,312.689 902.227,314.856 905.5,317.5C 790.833,317.5 676.167,317.5 561.5,317.5C 563.151,316.03 564.985,314.697 567,313.5C 569.442,308.607 568.442,307.607 564,310.5C 562.395,309.899 561.062,308.899 560,307.5C 559.285,303.604 559.452,299.937 560.5,296.5C 640.833,296.5 721.167,296.5 801.5,296.5C 801.833,297.833 802.167,297.833 802.5,296.5C 803.167,296.5 803.5,296.167 803.5,295.5 Z"/></g>
<g><path style="opacity:0.995" fill="#8c0768" d="M 561.5,317.5 C 676.167,317.5 790.833,317.5 905.5,317.5C 910.401,322.194 916.067,326.027 922.5,329C 930.568,327.247 934.568,330.413 934.5,338.5C 808.833,338.5 683.167,338.5 557.5,338.5C 557.626,336.8 558.293,335.3 559.5,334C 557.493,331.146 556.16,327.979 555.5,324.5C 557.442,322.176 559.442,319.843 561.5,317.5 Z"/></g>
<g><path style="opacity:0.995" fill="#860768" d="M 557.5,338.5 C 683.167,338.5 808.833,338.5 934.5,338.5C 936.158,341.006 937.158,343.84 937.5,347C 937.075,351.758 936.075,356.258 934.5,360.5C 815.167,360.5 695.833,360.5 576.5,360.5C 573.758,356.019 571.258,351.353 569,346.5C 565.188,343.688 561.354,341.021 557.5,338.5 Z"/></g>
<g><path style="opacity:0.996" fill="#800867" d="M 576.5,360.5 C 695.833,360.5 815.167,360.5 934.5,360.5C 929.575,366.93 924.075,372.93 918,378.5C 917.102,381.069 915.935,383.402 914.5,385.5C 806.167,385.5 697.833,385.5 589.5,385.5C 584.912,377.324 580.578,368.991 576.5,360.5 Z"/></g>
<g><path style="opacity:0.995" fill="#790967" d="M 589.5,385.5 C 697.833,385.5 806.167,385.5 914.5,385.5C 912.879,388.567 910.879,391.401 908.5,394C 906.874,393.805 905.207,393.805 903.5,394C 905.902,395.471 905.736,396.971 903,398.5C 902.503,401.146 902.336,403.813 902.5,406.5C 801.167,406.5 699.833,406.5 598.5,406.5C 596.483,404.783 596.15,402.783 597.5,400.5C 594.805,395.483 592.138,390.483 589.5,385.5 Z"/></g>
<g><path style="opacity:0.994" fill="#730a66" d="M 598.5,406.5 C 699.833,406.5 801.167,406.5 902.5,406.5C 901.608,413.791 901.274,421.124 901.5,428.5C 811.167,428.5 720.833,428.5 630.5,428.5C 622.396,424.614 614.396,420.447 606.5,416C 603.969,412.642 601.302,409.476 598.5,406.5 Z"/></g>
<g><path style="opacity:0.994" fill="#6d0a66" d="M 630.5,428.5 C 720.833,428.5 811.167,428.5 901.5,428.5C 902.285,432.596 901.118,435.93 898,438.5C 897.767,442.585 897.267,446.585 896.5,450.5C 813.167,450.5 729.833,450.5 646.5,450.5C 645.629,446.979 644.795,443.312 644,439.5C 639.109,436.103 634.609,432.437 630.5,428.5 Z"/></g>
<g><path style="opacity:0.994" fill="#660b65" d="M 646.5,450.5 C 729.833,450.5 813.167,450.5 896.5,450.5C 891.422,456.735 887.922,463.735 886,471.5C 883.658,473.115 881.158,474.449 878.5,475.5C 801.167,475.5 723.833,475.5 646.5,475.5C 646.107,472.07 646.773,468.904 648.5,466C 646.997,460.98 646.33,455.813 646.5,450.5 Z"/></g>
<g><path style="opacity:0.988" fill="#610b64" d="M 646.5,475.5 C 723.833,475.5 801.167,475.5 878.5,475.5C 878.714,477.144 878.38,478.644 877.5,480C 870.984,479.931 864.317,480.097 857.5,480.5C 857.471,483.656 855.804,485.322 852.5,485.5C 851.614,486.325 851.281,487.325 851.5,488.5C 845.639,486.597 840.639,487.93 836.5,492.5C 772.5,492.5 708.5,492.5 644.5,492.5C 644.124,486.66 644.79,480.994 646.5,475.5 Z"/></g>
<g><path style="opacity:0.993" fill="#5e0c64" d="M 644.5,492.5 C 708.5,492.5 772.5,492.5 836.5,492.5C 834.109,493.982 831.776,495.649 829.5,497.5C 767.833,497.5 706.167,497.5 644.5,497.5C 644.5,495.833 644.5,494.167 644.5,492.5 Z"/></g>
<g><path style="opacity:0.991" fill="#5a0c64" d="M 644.5,497.5 C 706.167,497.5 767.833,497.5 829.5,497.5C 829.5,498.5 829.5,499.5 829.5,500.5C 827.571,500.231 825.905,500.731 824.5,502C 825.876,504.54 825.21,506.54 822.5,508C 824.754,509.054 825.087,510.554 823.5,512.5C 825.291,515.144 825.958,517.811 825.5,520.5C 763.833,520.5 702.167,520.5 640.5,520.5C 641.703,516.222 642.703,511.889 643.5,507.5C 643.41,505.772 643.077,504.106 642.5,502.5C 643.95,501.15 644.617,499.484 644.5,497.5 Z"/></g>
<g><path style="opacity:0.992" fill="#550d64" d="M 640.5,520.5 C 702.167,520.5 763.833,520.5 825.5,520.5C 824.824,525.172 822.824,529.172 819.5,532.5C 758.5,532.5 697.5,532.5 636.5,532.5C 637.834,528.495 639.168,524.495 640.5,520.5 Z"/></g>
<g><path style="opacity:0.992" fill="#520d63" d="M 636.5,532.5 C 697.5,532.5 758.5,532.5 819.5,532.5C 817.066,536.382 814.399,540.048 811.5,543.5C 753.167,543.5 694.833,543.5 636.5,543.5C 636.953,542.542 637.619,541.708 638.5,541C 637.518,538.262 636.852,535.428 636.5,532.5 Z"/></g>
<g><path style="opacity:0.984" fill="#4e0e63" d="M 636.5,543.5 C 694.833,543.5 753.167,543.5 811.5,543.5C 808.17,550.814 803.004,556.481 796,560.5C 793.794,564.262 791.627,567.929 789.5,571.5C 774.5,571.5 759.5,571.5 744.5,571.5C 744.167,570.167 743.833,570.167 743.5,571.5C 707.167,571.5 670.833,571.5 634.5,571.5C 634.328,569.508 634.995,567.842 636.5,566.5C 635.716,560.369 635.049,554.203 634.5,548C 634.307,545.992 634.974,544.492 636.5,543.5 Z M 803.5,544.5 C 804.873,544.343 806.207,544.51 807.5,545C 804.908,548.932 801.908,552.599 798.5,556C 797.241,556.982 795.908,557.315 794.5,557C 798.135,553.212 801.135,549.046 803.5,544.5 Z"/></g>
<g><path style="opacity:0.978" fill="#470f62" d="M 634.5,571.5 C 670.833,571.5 707.167,571.5 743.5,571.5C 743.833,574.167 744.167,574.167 744.5,571.5C 759.5,571.5 774.5,571.5 789.5,571.5C 785.28,576.105 780.946,580.605 776.5,585C 773.376,586.687 770.209,586.854 767,585.5C 765.915,586.293 764.748,586.96 763.5,587.5C 758.929,584.587 753.929,582.753 748.5,582C 746.983,580.315 745.316,578.815 743.5,577.5C 742.592,578.79 742.759,580.123 744,581.5C 747.333,584.167 750.667,586.833 754,589.5C 754.018,591.797 753.851,594.131 753.5,596.5C 711.167,596.5 668.833,596.5 626.5,596.5C 629.636,588.279 632.303,579.946 634.5,571.5 Z"/></g>
<g><path style="opacity:0.982" fill="#410f61" d="M 626.5,596.5 C 668.833,596.5 711.167,596.5 753.5,596.5C 754.99,598.28 756.99,598.946 759.5,598.5C 759.382,601.688 758.549,604.688 757,607.5C 754.083,610.743 751.583,614.243 749.5,618C 739.898,621.786 729.898,623.619 719.5,623.5C 686.833,623.5 654.167,623.5 621.5,623.5C 620.861,619.15 619.861,614.816 618.5,610.5C 618.179,607.488 619.512,606.155 622.5,606.5C 622.486,602.525 623.819,599.192 626.5,596.5 Z"/></g>
<g><path style="opacity:0.973" fill="#3b1061" d="M 621.5,623.5 C 654.167,623.5 686.833,623.5 719.5,623.5C 717.393,624.468 715.059,624.802 712.5,624.5C 712.586,626.677 713.253,628.677 714.5,630.5C 713.285,632.215 712.285,634.049 711.5,636C 714.598,640.171 713.598,643.171 708.5,645C 706,645.5 703.5,646 701,646.5C 697.457,645.313 693.957,643.98 690.5,642.5C 689.679,645.446 689.679,648.446 690.5,651.5C 669.833,651.5 649.167,651.5 628.5,651.5C 627.903,650.861 627.07,650.528 626,650.5C 623.73,651.86 621.23,652.527 618.5,652.5C 617.871,650.014 616.871,647.681 615.5,645.5C 615.556,642.889 616.556,640.722 618.5,639C 617.919,638.107 617.585,637.107 617.5,636C 620.512,632.461 621.846,628.294 621.5,623.5 Z"/></g>
<g><path style="opacity:0.965" fill="#351160" d="M 628.5,651.5 C 649.167,651.5 669.833,651.5 690.5,651.5C 691.28,654.101 692.946,656.101 695.5,657.5C 695.109,656.282 695.776,655.448 697.5,655C 699.112,654.28 700.612,654.446 702,655.5C 703.492,661.161 701.325,663.494 695.5,662.5C 695.5,663.5 695.5,664.5 695.5,665.5C 689.477,666.016 687.144,669.182 688.5,675C 687.313,678.312 685.98,681.479 684.5,684.5C 680.704,684.948 677.038,685.948 673.5,687.5C 656.5,687.5 639.5,687.5 622.5,687.5C 621.766,686.292 621.433,684.959 621.5,683.5C 624.656,683.471 626.322,681.804 626.5,678.5C 625.176,677.065 623.51,676.065 621.5,675.5C 624.485,672.966 624.818,670.299 622.5,667.5C 625.103,664.244 626.103,660.744 625.5,657C 629.07,656.411 629.404,655.077 626.5,653C 626.836,651.97 627.503,651.47 628.5,651.5 Z M 695.5,662.5 C 693.654,662.778 692.32,662.111 691.5,660.5C 693.833,659.059 695.166,659.725 695.5,662.5 Z"/></g>
<g><path style="opacity:0.952" fill="#2e1260" d="M 622.5,687.5 C 639.5,687.5 656.5,687.5 673.5,687.5C 667.925,693.136 668.258,698.303 674.5,703C 677.289,703.241 679.956,703.908 682.5,705C 685.1,707.459 685.1,709.959 682.5,712.5C 683.326,713.451 683.492,714.451 683,715.5C 679.357,717.73 675.857,720.063 672.5,722.5C 653.167,722.5 633.833,722.5 614.5,722.5C 613.172,721.09 613.505,719.924 615.5,719C 612.76,717.95 611.26,716.117 611,713.5C 613.925,714.751 616.925,715.751 620,716.5C 620.684,715.216 620.517,714.049 619.5,713C 615.106,713.497 612.772,711.664 612.5,707.5C 613.5,707.5 614.5,707.5 615.5,707.5C 615.67,706.178 615.337,705.011 614.5,704C 610.339,702.422 606.006,701.255 601.5,700.5C 603.149,697.261 605.816,695.761 609.5,696C 608.151,694.365 608.318,692.865 610,691.5C 611.584,692.861 613.418,693.528 615.5,693.5C 615.729,695.433 616.562,697.1 618,698.5C 619.786,697.213 619.953,695.713 618.5,694C 619.078,692.189 619.578,690.355 620,688.5C 620.671,687.748 621.504,687.414 622.5,687.5 Z"/></g>
<g><path style="opacity:0.956" fill="#2a125f" d="M 614.5,722.5 C 633.833,722.5 653.167,722.5 672.5,722.5C 669.377,726.203 667.544,730.536 667,735.5C 665.54,737.422 663.873,738.089 662,737.5C 660.229,739.291 658.396,740.957 656.5,742.5C 642.5,742.5 628.5,742.5 614.5,742.5C 614.611,741.883 614.944,741.383 615.5,741C 612.332,740.418 611.999,739.418 614.5,738C 614.279,736.201 613.946,734.368 613.5,732.5C 614.167,731.5 614.833,730.5 615.5,729.5C 615.062,728.494 614.396,728.494 613.5,729.5C 612.154,726.9 612.488,724.567 614.5,722.5 Z"/></g>
<g><path style="opacity:0.913" fill="#27135f" d="M 614.5,742.5 C 628.5,742.5 642.5,742.5 656.5,742.5C 656.192,749.615 658.192,755.948 662.5,761.5C 662,761.833 661.5,762.167 661,762.5C 659.333,761.833 657.667,761.167 656,760.5C 652.279,763.241 648.113,764.908 643.5,765.5C 639.5,765.5 635.5,765.5 631.5,765.5C 632.609,764.71 633.942,764.21 635.5,764C 632.518,763.502 629.518,763.335 626.5,763.5C 627.376,760.201 627.543,756.868 627,753.5C 625.365,752.151 623.865,752.318 622.5,754C 623.973,754.71 624.64,755.876 624.5,757.5C 621.67,757.306 619.004,756.639 616.5,755.5C 616.472,753.418 617.139,751.584 618.5,750C 615.553,749.888 614.22,748.388 614.5,745.5C 615.552,745.649 616.552,745.483 617.5,745C 615.881,744.764 614.881,743.931 614.5,742.5 Z"/></g>
<g><path style="opacity:0.716" fill="#24135f" d="M 631.5,765.5 C 635.5,765.5 639.5,765.5 643.5,765.5C 642.019,769.319 641.186,773.319 641,777.5C 635.41,779.604 631.41,777.938 629,772.5C 626.956,773.772 625.122,773.439 623.5,771.5C 624.025,770.808 624.692,770.308 625.5,770C 624.167,769 624.167,768 625.5,767C 627.586,766.685 629.586,766.185 631.5,765.5 Z M 636.5,766.5 C 637.376,766.369 638.043,766.702 638.5,767.5C 636.808,769.359 635.308,771.359 634,773.5C 632.581,772.54 631.081,771.707 629.5,771C 631.074,770.647 632.741,769.98 634.5,769C 635.381,768.292 636.047,767.458 636.5,766.5 Z"/></g>
</svg>
